<?xml version="1.0" encoding="utf-8" ?>
<svg xmlns="http://www.w3.org/2000/svg" xmlns:xlink="http://www.w3.org/1999/xlink" width="1664" height="223">
	<path fill="#3530B3" transform="scale(0.406231 0.406193)" d="M1475.4 51.7863L1700.6 277.008L1475.4 502.229L1250.2 277.008L1475.4 51.7863ZM1475.4 96.5323L1294.94 277.008L1475.4 457.483L1655.86 277.008L1475.4 96.5323Z"/>
	<path fill="#3530B3" transform="scale(0.406231 0.406193)" d="M2618.93 50.8798L2844.13 276.101L2618.93 501.322L2393.73 276.101L2618.93 50.8798ZM2618.93 95.6257L2438.47 276.101L2618.93 456.576L2799.39 276.101L2618.93 95.6257Z"/>
	<path fill="#3530B3" transform="scale(0.406231 0.406193)" d="M2041.51 530.355L1649.98 276.725L2050.16 12.9429L2445.79 276.724L2050.16 535.958L2041.51 530.355ZM2058.71 503.799L2050.11 517.077L2041.44 503.844L2408.43 263.376L2417.1 276.609L2408.33 289.773L2041.33 45.0864L2050.11 31.9231L2058.81 45.1324L1687.6 289.819L1678.9 276.609L1687.5 263.331L2058.71 503.799Z"/>
	<path fill="#3530B3" transform="scale(0.406231 0.406193)" d="M134.987 260.789L1273.94 260.789L1273.94 292.43L134.987 292.43L134.987 260.789Z"/>
	<path fill="#3530B3" transform="scale(0.406231 0.406193)" d="M215.135 276.609Q215.135 279.198 215.008 281.784Q214.881 284.37 214.627 286.947Q214.373 289.524 213.993 292.085Q213.614 294.646 213.109 297.185Q212.603 299.724 211.974 302.236Q211.345 304.747 210.594 307.225Q209.842 309.703 208.97 312.14Q208.098 314.578 207.107 316.97Q206.117 319.362 205.01 321.703Q203.903 324.043 202.682 326.327Q201.462 328.61 200.131 330.831Q198.8 333.052 197.362 335.204Q195.924 337.357 194.381 339.437Q192.839 341.516 191.197 343.518Q189.555 345.519 187.816 347.437Q186.077 349.356 184.247 351.187Q182.416 353.017 180.498 354.756Q178.58 356.495 176.579 358.137Q174.577 359.78 172.498 361.322Q170.419 362.865 168.266 364.303Q166.114 365.741 163.893 367.072Q161.672 368.403 159.389 369.624Q157.106 370.844 154.766 371.951Q152.426 373.058 150.034 374.049Q147.642 375.04 145.204 375.912Q142.767 376.785 140.29 377.536Q137.812 378.288 135.301 378.917Q132.79 379.546 130.25 380.051Q127.711 380.556 125.151 380.936Q122.59 381.316 120.013 381.57Q117.437 381.823 114.851 381.951Q112.265 382.078 109.677 382.078Q107.088 382.078 104.502 381.951Q101.916 381.823 99.3399 381.57Q96.7635 381.316 94.2027 380.936Q91.6418 380.556 89.1027 380.051Q86.5636 379.546 84.0523 378.917Q81.5411 378.288 79.0637 377.536Q76.5863 376.785 74.1488 375.912Q71.7113 375.04 69.3195 374.049Q66.9277 373.058 64.5874 371.951Q62.2471 370.844 59.9639 369.624Q57.6808 368.404 55.4602 367.072Q53.2397 365.741 51.0871 364.303Q48.9346 362.865 46.8552 361.322Q44.7758 359.78 42.7746 358.137Q40.7734 356.495 38.8552 354.756Q36.9369 353.017 35.1063 351.187Q33.2757 349.356 31.5372 347.437Q29.7986 345.519 28.1563 343.518Q26.5139 341.516 24.9717 339.437Q23.4295 337.357 21.9913 335.204Q20.553 333.052 19.222 330.831Q17.8911 328.61 16.6707 326.327Q15.4503 324.043 14.3434 321.703Q13.2366 319.362 12.2459 316.97Q11.2551 314.578 10.383 312.14Q9.51083 309.703 8.75933 307.225Q8.00782 304.747 7.37878 302.236Q6.74974 299.724 6.24468 297.185Q5.73962 294.646 5.35975 292.085Q4.97989 289.524 4.72614 286.947Q4.47239 284.37 4.34536 281.784Q4.21833 279.198 4.21833 276.609Q4.21833 274.02 4.34536 271.434Q4.47239 268.848 4.72614 266.272Q4.97989 263.695 5.35975 261.134Q5.73962 258.573 6.24468 256.034Q6.74974 253.494 7.37878 250.983Q8.00782 248.471 8.75933 245.994Q9.51083 243.516 10.383 241.078Q11.2551 238.64 12.2459 236.248Q13.2366 233.856 14.3435 231.516Q15.4503 229.175 16.6707 226.892Q17.8911 224.609 19.222 222.388Q20.553 220.167 21.9912 218.014Q23.4295 215.862 24.9717 213.782Q26.5139 211.702 28.1563 209.701Q29.7986 207.7 31.5372 205.781Q33.2757 203.863 35.1063 202.032Q36.9369 200.201 38.8552 198.463Q40.7734 196.724 42.7746 195.081Q44.7758 193.439 46.8552 191.896Q48.9346 190.354 51.0871 188.916Q53.2397 187.477 55.4602 186.146Q57.6808 184.815 59.9639 183.595Q62.2471 182.374 64.5874 181.267Q66.9277 180.16 69.3195 179.169Q71.7113 178.179 74.1488 177.306Q76.5863 176.434 79.0637 175.683Q81.5411 174.931 84.0523 174.302Q86.5636 173.673 89.1027 173.168Q91.6418 172.663 94.2027 172.283Q96.7635 171.903 99.3399 171.649Q101.916 171.395 104.502 171.268Q107.088 171.141 109.677 171.141Q112.265 171.141 114.851 171.268Q117.437 171.395 120.013 171.649Q122.59 171.903 125.151 172.283Q127.711 172.663 130.251 173.168Q132.79 173.673 135.301 174.302Q137.812 174.931 140.29 175.683Q142.767 176.434 145.204 177.306Q147.642 178.179 150.034 179.169Q152.426 180.16 154.766 181.267Q157.106 182.374 159.389 183.595Q161.672 184.815 163.893 186.146Q166.114 187.477 168.266 188.916Q170.419 190.354 172.498 191.896Q174.577 193.439 176.579 195.081Q178.58 196.724 180.498 198.463Q182.416 200.201 184.247 202.032Q186.077 203.863 187.816 205.781Q189.555 207.7 191.197 209.701Q192.839 211.702 194.381 213.782Q195.924 215.862 197.362 218.014Q198.8 220.167 200.131 222.388Q201.462 224.609 202.683 226.892Q203.903 229.175 205.01 231.516Q206.117 233.856 207.107 236.248Q208.098 238.64 208.97 241.078Q209.842 243.516 210.594 245.994Q211.345 248.471 211.974 250.983Q212.603 253.494 213.109 256.034Q213.614 258.573 213.993 261.134Q214.373 263.695 214.627 266.272Q214.881 268.848 215.008 271.434Q215.135 274.02 215.135 276.609Z"/>
	<path fill="#3530B3" transform="scale(0.406231 0.406193)" d="M3961.01 292.43L2822.06 292.43L2822.06 260.789L3961.01 260.789L3961.01 292.43Z"/>
	<path fill="#3530B3" transform="scale(0.406231 0.406193)" d="M4087.56 276.609Q4087.56 279.198 4087.44 281.784Q4087.31 284.37 4087.06 286.947Q4086.8 289.524 4086.42 292.085Q4086.04 294.646 4085.54 297.185Q4085.03 299.724 4084.4 302.236Q4083.77 304.747 4083.02 307.225Q4082.27 309.703 4081.4 312.14Q4080.53 314.578 4079.54 316.97Q4078.54 319.362 4077.44 321.703Q4076.33 324.043 4075.11 326.327Q4073.89 328.61 4072.56 330.831Q4071.23 333.052 4069.79 335.204Q4068.35 337.357 4066.81 339.437Q4065.27 341.516 4063.62 343.518Q4061.98 345.519 4060.24 347.437Q4058.51 349.356 4056.67 351.187Q4054.84 353.017 4052.93 354.756Q4051.01 356.495 4049.01 358.137Q4047.01 359.78 4044.93 361.322Q4042.85 362.865 4040.69 364.303Q4038.54 365.741 4036.32 367.072Q4034.1 368.403 4031.82 369.624Q4029.53 370.844 4027.19 371.951Q4024.85 373.058 4022.46 374.049Q4020.07 375.04 4017.63 375.912Q4015.19 376.785 4012.72 377.536Q4010.24 378.288 4007.73 378.917Q4005.22 379.546 4002.68 380.051Q4000.14 380.556 3997.58 380.936Q3995.02 381.316 3992.44 381.57Q3989.87 381.823 3987.28 381.951Q3984.69 382.078 3982.1 382.078Q3979.52 382.078 3976.93 381.951Q3974.34 381.823 3971.77 381.57Q3969.19 381.316 3966.63 380.936Q3964.07 380.556 3961.53 380.051Q3958.99 379.546 3956.48 378.917Q3953.97 378.288 3951.49 377.536Q3949.01 376.785 3946.58 375.912Q3944.14 375.04 3941.75 374.049Q3939.36 373.058 3937.02 371.951Q3934.68 370.844 3932.39 369.624Q3930.11 368.404 3927.89 367.072Q3925.67 365.741 3923.52 364.303Q3921.36 362.865 3919.28 361.322Q3917.2 359.78 3915.2 358.137Q3913.2 356.495 3911.28 354.756Q3909.36 353.017 3907.53 351.187Q3905.7 349.356 3903.97 347.437Q3902.23 345.519 3900.58 343.518Q3898.94 341.516 3897.4 339.437Q3895.86 337.357 3894.42 335.204Q3892.98 333.052 3891.65 330.831Q3890.32 328.61 3889.1 326.327Q3887.88 324.043 3886.77 321.703Q3885.66 319.362 3884.67 316.97Q3883.68 314.578 3882.81 312.14Q3881.94 309.703 3881.19 307.225Q3880.44 304.747 3879.81 302.236Q3879.18 299.724 3878.67 297.185Q3878.17 294.646 3877.79 292.085Q3877.41 289.524 3877.15 286.947Q3876.9 284.37 3876.77 281.784Q3876.65 279.198 3876.65 276.609Q3876.65 274.02 3876.77 271.434Q3876.9 268.848 3877.15 266.272Q3877.41 263.695 3877.79 261.134Q3878.17 258.573 3878.67 256.034Q3879.18 253.494 3879.81 250.983Q3880.44 248.471 3881.19 245.994Q3881.94 243.516 3882.81 241.078Q3883.68 238.64 3884.67 236.248Q3885.66 233.856 3886.77 231.516Q3887.88 229.175 3889.1 226.892Q3890.32 224.609 3891.65 222.388Q3892.98 220.167 3894.42 218.014Q3895.86 215.862 3897.4 213.782Q3898.94 211.702 3900.58 209.701Q3902.23 207.7 3903.97 205.781Q3905.7 203.863 3907.53 202.032Q3909.37 200.201 3911.28 198.463Q3913.2 196.724 3915.2 195.081Q3917.2 193.439 3919.28 191.896Q3921.36 190.354 3923.52 188.916Q3925.67 187.477 3927.89 186.146Q3930.11 184.815 3932.39 183.595Q3934.68 182.374 3937.02 181.267Q3939.36 180.16 3941.75 179.169Q3944.14 178.179 3946.58 177.306Q3949.01 176.434 3951.49 175.683Q3953.97 174.931 3956.48 174.302Q3958.99 173.673 3961.53 173.168Q3964.07 172.663 3966.63 172.283Q3969.19 171.903 3971.77 171.649Q3974.34 171.395 3976.93 171.268Q3979.52 171.141 3982.1 171.141Q3984.69 171.141 3987.28 171.268Q3989.87 171.395 3992.44 171.649Q3995.02 171.903 3997.58 172.283Q4000.14 172.663 4002.68 173.168Q4005.22 173.673 4007.73 174.302Q4010.24 174.931 4012.72 175.683Q4015.19 176.434 4017.63 177.306Q4020.07 178.179 4022.46 179.169Q4024.85 180.16 4027.19 181.267Q4029.53 182.374 4031.82 183.595Q4034.1 184.815 4036.32 186.146Q4038.54 187.477 4040.69 188.916Q4042.85 190.354 4044.93 191.896Q4047.01 193.439 4049.01 195.081Q4051.01 196.724 4052.93 198.463Q4054.84 200.201 4056.68 202.032Q4058.51 203.863 4060.24 205.781Q4061.98 207.7 4063.63 209.701Q4065.27 211.702 4066.81 213.782Q4068.35 215.862 4069.79 218.014Q4071.23 220.167 4072.56 222.388Q4073.89 224.609 4075.11 226.892Q4076.33 229.175 4077.44 231.516Q4078.54 233.856 4079.54 236.248Q4080.53 238.64 4081.4 241.078Q4082.27 243.516 4083.02 245.994Q4083.77 248.471 4084.4 250.983Q4085.03 253.494 4085.54 256.034Q4086.04 258.573 4086.42 261.134Q4086.8 263.695 4087.06 266.272Q4087.31 268.848 4087.44 271.434Q4087.56 274.02 4087.56 276.609Z"/>
</svg>
