<?xml version="1.0" encoding="utf-8" ?>
<svg xmlns="http://www.w3.org/2000/svg" xmlns:xlink="http://www.w3.org/1999/xlink" width="1024" height="1024">
	<path fill="#FEFEFE" d="M0 0L1024 0L1024 1024L0 1024L0 0Z"/>
	<path fill="#374355" d="M385.672 704.261C387.27 704.214 389.548 703.836 390.969 704.622C390.433 705.967 388.928 706.542 387.734 707.234C387.049 710.848 386.995 714.438 386.976 718.103C386.928 727.451 385.848 749.165 387.601 756.963C387.9 758.293 388.281 759.178 389.326 760.123C391.872 762.423 397.776 762.426 400.908 761.926C406.582 761.022 409.261 755.9 412.405 751.685C411.268 756.515 409.927 761.374 409.971 766.365L400.375 766.315C389.221 766.097 378.051 766.458 366.906 765.87C368.268 765.339 369.656 765.012 371.055 764.602C373.181 763.977 375.181 763.195 376.202 761.064C378.17 756.957 378.307 714.002 376.614 710.041C375.617 707.71 373.717 706.882 371.493 705.955L370.853 705.695L370.776 705.215C373.817 703.3 382.002 704.253 385.672 704.261Z"/>
	<path fill="#374355" d="M650.52 702.726L698.81 702.922C699.015 705.869 701.489 713.653 700.047 715.934C698.217 715.504 696.048 712.343 694.672 710.909C690.583 706.65 685.954 707.478 680.495 707.368L680.427 739.715C680.418 747.163 679.628 755.584 681.377 762.832C683.899 764.569 687.361 765.412 690.258 766.38C685.495 766.686 666.111 767.46 662.553 766.235L662.584 765.46C664.211 765.079 665.85 764.755 667.15 763.628C668.304 762.627 668.838 760.82 669.062 759.37C669.906 753.889 669.324 747.639 669.334 742.06L669.381 707.379C661.918 707.412 656.168 706.098 651.573 713.071C650.808 714.232 650.386 715.335 649.144 715.992C648.88 715.364 648.736 714.809 648.71 714.124C648.617 711.719 648.915 704.427 650.52 702.726Z"/>
	<path fill="#374355" d="M311.438 702.997C329.736 703.015 348.53 704.277 366.766 702.975Q366.867 705.346 366.938 707.718C367.011 710.272 367.558 716.253 365.736 718.179L365.054 718.117C363.828 716.435 363.726 714.018 363.397 712.002C357.528 707.836 351.228 708.709 344.408 708.815C343.607 724.975 343.757 741.62 344.389 757.788C344.455 758.925 344.539 760.248 344.99 761.313C345.763 763.142 350.413 764.726 352.176 765.581C347.671 767.11 329.509 766.024 323.59 765.819C326.291 764.612 330.28 764.675 332.288 762.379C335.171 759.083 334.049 716.761 334.164 708.826C329.056 708.737 322.811 708.068 317.935 709.667C315.6 710.433 314.347 711.445 313.22 713.614C313.15 713.75 312.616 714.821 312.502 714.98C311.822 715.933 311.482 716.034 310.431 716.295C308.949 713.638 310.949 706.148 311.438 702.997Z"/>
	<path fill="#374355" d="M495.969 703.648C500.476 703.396 504.572 703.761 509.007 704.543C509.031 708.502 509.73 713.53 508.851 717.348C507.643 717.028 504.758 711.515 503.646 710.323C502.144 708.712 499.919 707.433 497.674 707.398C494.897 707.355 492.402 709.017 490.495 710.898C488.509 712.858 487.397 715.181 487.457 718.004C487.639 726.539 500.769 731.271 506.225 736.617C509.721 740.043 512.193 744.754 512.182 749.728C512.172 754.138 510.056 758.123 506.971 761.185C501.031 767.08 493.972 767.676 486.102 767.529C483.005 767.278 478.689 767.406 476.486 764.903C473.611 761.637 476.498 751.722 476.916 747.609C477.83 751.616 478.004 757.332 481.368 760.115C484.132 762.402 488.475 763.469 491.992 762.916C495.416 762.377 498.531 760.51 500.47 757.598C501.404 756.195 501.788 754.62 501.451 752.945C500.165 746.542 493.205 742.588 488.277 739.202C483.006 735.579 478.4 731.257 477.345 724.609C476.612 719.987 477.932 714.879 480.785 711.166C484.486 706.347 490.2 704.478 495.969 703.648Z"/>
	<path fill="#374355" d="M444.075 703.181C444.68 703.559 445.122 703.842 445.577 704.436C447.836 707.376 449.402 712.989 450.88 716.494C456.461 729.73 463.556 750.122 471.174 761.504C472.321 763.217 473.801 764.659 475.266 766.096C470.276 765.938 465.337 765.601 460.364 765.183C457.913 758.525 455.052 752.028 452.264 745.506Q444.07 745.678 435.875 745.738C435.046 745.783 433.707 745.633 433.041 746.147C429.772 748.666 426.71 758.721 426.196 762.679C427.651 764.35 430.977 765.082 433.034 765.885C425.047 766.144 415.535 767.292 407.672 765.748C410.088 764.893 412.417 764.653 414.879 764.057C416.929 763.561 418.035 762.051 419.119 760.348C422.217 755.478 424.22 749.608 426.394 744.267C431.506 731.706 437.32 715.124 443.818 703.626C443.902 703.477 443.99 703.33 444.075 703.181Z"/>
	<path fill="#FEFEFE" d="M442.116 720.39C445.672 724.606 448.551 735.81 450.5 741.311L442.903 741.434L433.995 741.366C436.908 734.479 439.43 727.372 442.116 720.39Z"/>
	<path fill="#374355" d="M624.63 701.817C627.614 704.783 629.035 711.175 630.508 715.169C633.814 724.13 644.807 756.358 649.687 761.991C651.367 763.931 654.321 765.31 656.527 766.606C649.242 767.026 641.82 766.796 634.518 766.842L636.155 762.327C634.885 756.525 632.425 750.945 630.043 745.529L623.724 745.801L612.524 745.63C610.357 751.234 608.093 756.866 607.055 762.807C609.013 764.117 611.078 765.284 613.099 766.495C606.264 766.477 599.266 766.735 592.462 766.115C594.704 765.216 596.99 764.494 599.288 763.757C603.711 755.343 606.56 746.326 609.782 737.416C614.006 725.735 618.891 712.781 624.63 701.817Z"/>
	<path fill="#FEFEFE" d="M621.257 721.407C623.725 724.267 627.218 736.899 628.665 741.002L621.941 741.075L613.783 741.144C616 734.455 618.632 727.943 621.257 721.407Z"/>
	<path fill="#374355" d="M764.044 702.737C766.644 702.634 769.273 702.767 771.876 702.815C769.48 703.576 766.204 704.249 765.021 706.714C762.963 711.006 762.68 758.525 764.747 762.28C766.097 764.732 770.704 765.783 773.19 766.671C764.04 767.283 753.685 767.26 744.537 766.509C746.728 765.662 749.586 764.836 751.2 763.063C754.475 759.465 753.217 739.26 753.196 734.024L723.378 733.85C723.323 739.798 722.16 756.706 723.895 761.43C724.939 764.271 729.084 765.561 731.634 766.669C727.08 766.775 722.506 766.679 717.95 766.672C713.08 766.714 708.265 766.665 703.399 766.403C705.639 765.48 709.724 764.307 710.981 762.123C712.566 759.372 712.864 710.726 711.19 707.404C710.441 705.917 708.703 705.079 707.24 704.519L703.34 702.992Q717.987 702.669 732.635 702.955L729.925 703.809C728.228 704.338 726.838 704.794 725.582 706.127C721.173 710.811 723.298 722.933 723.461 729.265Q738.27 729.353 753.077 729.143C753.205 723.238 754.737 712.524 752.035 707.212C750.872 704.927 747.954 704.577 745.685 703.919L745.818 703.364C750.502 701.948 758.946 702.789 764.044 702.737Z"/>
	<path fill="#374355" d="M549.182 681.07C554.344 680.679 559.609 681.058 564.781 681.15C575.226 681.336 588.809 680.046 598.095 685.595C601.847 687.838 604.373 691.249 605.311 695.53C606.957 703.039 604.662 712.048 600.328 718.298C596.047 724.472 589.065 727.882 581.835 729.153C580.242 729.434 578.587 729.808 577.223 728.856C577.793 728.379 577.533 728.514 578.221 728.261C581.041 727.224 583.774 726.177 586.219 724.384C590.64 721.141 593.23 716.348 593.98 710.957C594.864 704.615 593.34 698.131 589.45 693.003C585.387 687.647 580.541 686.139 574.212 685.225C574.026 688.55 574.075 691.918 574.023 695.25C573.931 704.807 571.915 754.398 574.506 758.829C577.015 763.12 581.894 762.502 584.787 765.536C582.5 766.959 558.089 766.421 553.28 766.51L552.811 765.569L552.356 765.875L552.331 766.401L551.872 765.594C552.963 762.091 558.203 762.968 559.991 760C562.331 756.113 561.497 694.699 559.632 688.079C558.172 682.898 553.298 685.259 549.926 683.05C549.23 682.594 549.33 681.828 549.182 681.07Z"/>
	<path fill="#EDBB58" d="M283.285 677.705C288.584 680.713 306.176 750.465 316.522 763.196C318.243 763.614 319.701 763.873 321.094 765.011L321.127 765.776C317.3 767.701 308.742 766.504 304.367 766.406C300.726 757.1 297.463 747.624 293.918 738.276L276.625 737.987L270.116 737.947C268.325 743.057 263.027 755.763 262.772 760.366C262.544 764.471 267.819 762.841 269.856 765.017L269.587 766.038C267.356 767.189 248.177 766.507 244.659 766.176L244.445 765.612C246.684 763.078 250.926 763.501 253.051 760.61C256.519 755.892 258.292 748.798 260.272 743.282Q267.499 723.071 274.13 702.656C276.895 694.387 279.289 685.467 283.285 677.705Z"/>
	<path fill="#FEFEFE" d="M281.148 701.276C284.31 703.232 290.101 726.959 291.776 732.046L282.225 732.008L272.045 732.046C274.895 721.734 278.404 711.635 281.148 701.276Z"/>
	<path fill="#374355" d="M373.272 521.216C434.26 546.457 505.144 575.063 552.796 621.482C562.274 630.715 571.388 640.847 577.466 652.69L570.246 652.622Q531.652 651.547 493.048 652.13Q454.444 652.714 415.901 654.955Q377.357 657.195 338.946 661.09Q300.534 664.984 262.325 670.524Q200.634 679.935 139.436 692.153C119.994 696.103 100.661 700.588 81.2331 704.617C95.1175 699.399 108.397 692.615 122.418 687.637C182.525 666.298 244.076 652.175 306.975 642.047C313.024 642.233 324.925 639.499 331.527 638.504C339.129 637.358 398.175 629.264 401.69 630.29C402.174 630.431 402.579 630.765 403.023 631.003L403.019 631.821C408.333 632.745 414.462 631.489 419.9 631.489C424.959 617.755 425.044 608.335 418.806 594.787C409.021 573.537 386.633 555.416 366.675 543.674C362.454 541.191 348.414 534.709 347.591 530.505C348.614 528.14 351.187 527.111 353.451 526.199C359.665 523.694 366.649 522.15 373.272 521.216Z"/>
	<path fill="#4A5463" d="M209.535 647.581C194 631.35 180.943 611.795 169.772 592.343C134.952 531.714 120.896 471.65 122.459 401.949C122.929 380.977 126.164 360.332 130.781 339.899C133.121 329.545 135.485 319.026 138.662 308.894Q140.301 303.775 142.096 298.708Q143.892 293.641 145.841 288.631Q147.79 283.621 149.891 278.674Q151.992 273.726 154.244 268.845Q156.496 263.963 158.895 259.153Q161.295 254.343 163.84 249.609Q166.386 244.874 169.075 240.219Q171.764 235.565 174.594 230.995Q177.424 226.424 180.393 221.943Q183.361 217.461 186.465 213.073Q189.569 208.684 192.806 204.392Q196.042 200.1 199.409 195.909Q202.775 191.718 206.268 187.632Q209.761 183.546 213.377 179.569Q216.993 175.591 220.729 171.726Q224.465 167.861 228.317 164.112C295.327 100.118 390.03 64.3445 482.499 66.6258Q486.649 66.7518 490.795 66.9793Q494.941 67.2067 499.081 67.5354Q503.22 67.8642 507.35 68.294Q511.48 68.7238 515.598 69.2544Q519.716 69.7851 523.82 70.4162Q527.924 71.0474 532.012 71.7787Q536.099 72.51 540.167 73.341Q544.235 74.172 548.282 75.1022Q552.329 76.0324 556.352 77.0613Q560.375 78.0901 564.371 79.217Q568.367 80.3439 572.335 81.5682Q576.303 82.7924 580.239 84.1133Q584.176 85.4342 588.079 86.8509Q591.982 88.2676 595.849 89.7793Q599.717 91.291 603.546 92.8968Q607.375 94.5026 611.164 96.2016Q614.953 97.9005 618.699 99.6915Q622.445 101.483 626.146 103.365Q629.847 105.247 633.501 107.219Q637.156 109.191 640.76 111.251Q644.365 113.312 647.918 115.46Q651.472 117.609 654.972 119.843Q658.471 122.078 661.916 124.397Q665.36 126.716 668.746 129.119Q672.132 131.522 675.459 134.007Q678.786 136.492 682.051 139.057Q685.315 141.623 688.517 144.268Q691.718 146.912 694.853 149.634Q697.989 152.356 701.057 155.154Q704.125 157.952 707.124 160.824Q710.123 163.696 713.05 166.64Q715.978 169.585 718.833 172.6Q721.829 175.739 724.747 178.95Q727.665 182.161 730.504 185.442Q733.343 188.723 736.102 192.073Q738.86 195.422 741.536 198.838Q744.212 202.253 746.804 205.733Q749.396 209.213 751.902 212.754Q754.409 216.296 756.828 219.898Q759.248 223.5 761.579 227.16Q763.91 230.819 766.151 234.535Q768.392 238.25 770.542 242.019Q772.692 245.788 774.749 249.608Q776.807 253.428 778.771 257.297Q780.734 261.166 782.604 265.082Q784.473 268.998 786.246 272.958Q788.019 276.918 789.695 280.921Q791.371 284.923 792.949 288.965Q794.527 293.006 796.006 297.085Q797.485 301.165 798.865 305.278Q800.244 309.392 801.523 313.539Q802.802 317.685 803.979 321.861Q805.156 326.037 806.232 330.241Q807.307 334.445 808.279 338.673Q809.252 342.902 810.121 347.153Q810.991 351.404 811.756 355.675Q812.522 359.946 813.183 364.234Q813.844 368.522 814.401 372.825Q814.957 377.128 815.409 381.444Q815.86 385.759 816.207 390.084Q816.553 394.41 816.794 398.742Q817.035 403.074 817.17 407.411Q817.305 411.748 817.335 416.087Q817.364 420.426 817.288 424.764C815.067 506.304 786.655 583.328 732.776 644.924Q746.327 647.1 759.805 649.693Q773.282 652.286 786.673 655.293Q800.064 658.3 813.356 661.719Q826.648 665.138 839.829 668.966Q853.009 672.793 866.065 677.026Q879.12 681.258 892.039 685.891Q904.958 690.524 917.728 695.554Q930.498 700.583 943.107 706.004C927.605 703.261 912.215 699.5 896.802 696.274L815.694 680.136C742.541 666.32 663.604 656.076 589.333 653.018C582.994 652.987 576.56 653.175 570.246 652.622L577.466 652.69C571.388 640.847 562.274 630.715 552.796 621.482C505.144 575.063 434.26 546.457 373.272 521.216C366.649 522.15 359.665 523.694 353.451 526.199C351.187 527.111 348.614 528.14 347.591 530.505C348.414 534.709 362.454 541.191 366.675 543.674C386.633 555.416 409.021 573.537 418.806 594.787C425.044 608.335 424.959 617.755 419.9 631.489C414.462 631.489 408.333 632.745 403.019 631.821L403.023 631.003C402.579 630.765 402.174 630.431 401.69 630.29C398.175 629.264 339.129 637.358 331.527 638.504C324.925 639.499 313.024 642.233 306.975 642.047C296.255 632.782 270.639 613.934 269.589 598.986C269.47 597.289 270.1 595.975 271.203 594.759C272.96 592.822 276.714 591.106 276.252 588.064C275.418 582.568 268.168 580.585 268.515 573.782C268.787 568.452 271.154 563.064 272.006 557.748C276.061 555.951 284.65 552.895 286.214 548.331C288.906 540.468 283.636 520.207 279.719 513.193C279.146 512.166 278.533 511.464 277.355 511.218C273.495 510.411 269.062 513.392 266.053 515.549Q263.648 517.287 261.284 519.08C257.052 516.332 252.987 513.353 248.928 510.36C237.565 501.98 236.224 496.95 232.19 484.027C231.116 480.59 229.857 476.839 227.322 474.179C223.313 469.972 216.718 469.391 212.705 465.037C208.124 460.066 206.56 451.326 201.339 447.309C194.722 442.219 186.879 445.475 180.151 437.004C177.072 433.127 175.86 427.942 173.639 423.584C169.808 416.067 164.652 409.678 162.821 401.242C160.929 392.53 164.017 384.706 164.107 376.119C164.212 366.158 162.542 356.513 163.631 346.489C164.612 337.461 167.95 328.703 166.719 319.434L166.099 319.414C164.513 321.557 163.177 324.424 162.444 327C160.654 333.289 159.157 356.749 159.24 363.893C159.292 368.363 160.269 373.716 159.845 378.035C159.731 379.203 159.627 379.347 158.771 380.047C156.596 379.148 155.82 377.041 154.98 374.943C150.072 362.686 157.339 318.763 161.051 304.591Q163.078 296.788 165.768 289.188Q168.459 281.587 171.793 274.247Q179.82 256.216 189.983 239.298C196.575 228.49 204.563 218.766 208.658 206.622Q206.091 209.88 203.604 213.201Q201.118 216.522 198.715 219.903Q196.311 223.284 193.992 226.723Q191.673 230.162 189.439 233.658Q187.205 237.153 185.059 240.703Q182.912 244.252 180.854 247.854Q178.795 251.455 176.826 255.106Q174.857 258.758 172.979 262.456Q171.101 266.155 169.314 269.899Q167.528 273.643 165.835 277.43Q164.141 281.216 162.542 285.044Q160.942 288.871 159.438 292.737Q157.933 296.603 156.525 300.505Q155.116 304.406 153.804 308.342Q152.492 312.277 151.278 316.244Q150.063 320.21 148.947 324.205Q147.831 328.201 146.814 332.222Q145.797 336.244 144.879 340.289Q143.962 344.335 143.144 348.402Q142.327 352.469 141.61 356.554Q140.893 360.64 140.278 364.743Q139.662 368.845 139.147 372.961Q138.633 377.077 138.221 381.205Q137.808 385.333 137.497 389.469Q137.187 393.606 136.978 397.749Q136.77 401.892 136.664 406.039Q136.558 410.186 136.554 414.334Q136.551 418.482 136.649 422.629Q136.748 426.776 136.949 430.919Q137.15 435.063 137.453 439.2Q137.757 443.337 138.162 447.465Q138.567 451.594 139.074 455.711Q139.488 458.99 139.967 462.26Q140.447 465.53 140.993 468.789Q141.539 472.049 142.151 475.296Q142.762 478.544 143.439 481.779Q144.117 485.014 144.859 488.234Q145.602 491.455 146.409 494.659Q147.217 497.864 148.089 501.052Q148.961 504.24 149.897 507.409Q150.834 510.579 151.834 513.728Q152.834 516.878 153.898 520.007Q154.962 523.136 156.089 526.243Q157.216 529.35 158.405 532.433Q159.595 535.517 160.846 538.576Q162.098 541.634 163.411 544.667Q164.724 547.7 166.099 550.706Q167.473 553.711 168.908 556.688Q170.342 559.666 171.837 562.613Q173.332 565.561 174.886 568.477Q176.44 571.394 178.052 574.279Q179.665 577.164 181.336 580.015Q183.006 582.867 184.734 585.684Q186.462 588.501 188.247 591.283Q190.032 594.064 191.872 596.809Q193.713 599.554 195.608 602.261Q197.504 604.969 199.454 607.637Q201.404 610.305 203.408 612.933Q205.411 615.562 207.467 618.149Q209.524 620.736 211.632 623.281Q213.74 625.827 215.9 628.329Q218.059 630.831 220.268 633.288Q222.478 635.746 224.736 638.159Q226.995 640.572 229.302 642.938C222.754 644.587 216.189 646.427 209.535 647.581Z"/>
	<path fill="#FEFEFE" d="M342.19 130.193C342.576 130.115 343.1 129.989 343.488 130.016C344.67 130.098 344.983 130.396 345.666 131.237C345.556 132.304 345.613 132.681 344.773 133.452C342.086 135.915 337.466 135.488 334.106 135.461C332.453 134.978 330.373 134.441 329.434 132.928C331.378 130.6 339.133 130.546 342.19 130.193Z"/>
	<path fill="#FEFEFE" d="M750.674 246.856C751.754 246.789 752.852 246.816 753.863 247.252C759.959 249.881 766.536 261.305 768.468 267.421C769.439 270.496 770.03 273.156 768.489 276.097C764.164 275.523 760.195 274.455 756.076 273.033C753.435 268.763 751.173 264.109 749.822 259.26C748.541 254.665 748.328 251.061 750.674 246.856Z"/>
	<path fill="#FEFEFE" d="M543.426 324.075C544.399 323.876 544.325 323.764 545.311 324.183C545.943 329.307 545.526 334.795 545.512 339.979L545.49 368.195L540.363 360.277Q535.047 352.316 529.865 344.268L530.326 327.869C534.758 327.077 539.149 325.455 543.426 324.075Z"/>
	<path fill="#FEFEFE" d="M539.514 429.378C544.747 429.667 550.16 430.954 555.318 431.913Q569.686 434.572 583.993 437.543C583.709 453.387 582.522 469.269 582.015 485.12L581.901 485.742C579.834 487.499 545.076 484.156 539.523 483.922L539.514 429.378Z"/>
	<path fill="#FEFEFE" d="M456.741 321.813C476.114 328.606 495.867 334.373 515.517 340.302C526.889 353.213 535.834 368.404 546.366 382.047C554.267 381.344 562.243 381.51 570.172 381.479C581.686 396.928 593.648 412.117 604.591 427.975C583.356 422.68 561.304 420.446 539.925 415.697Q521.495 396.731 503.539 377.316C488.228 362.048 473.674 346.003 458.244 330.874C446.459 346.42 434.116 361.585 422.443 377.217C414.121 388.362 406.35 400.59 397.18 411.01C395.548 412.864 393.609 413.977 391.37 414.939L389.827 413.92C389.879 412.737 390.775 411.428 391.429 410.469C394.844 405.463 398.705 400.702 402.281 395.803Q416.018 376.67 430.145 357.822C438.854 345.966 446.95 332.776 456.741 321.813Z"/>
	<path fill="#EDBB58" d="M403.023 631.003C407.533 627.41 410.649 623.217 411.311 617.338C412.535 606.458 404.502 594.878 397.943 586.978C386.871 573.644 373.738 563.343 358.98 554.404C352.81 550.668 345.254 547.133 340.014 542.148C336.886 539.173 334.188 534.432 334.491 529.996C334.77 525.926 337.167 522.569 340.212 520.015C345.883 515.259 353.991 513.257 361.084 511.714C371.601 509.425 382.454 508.296 393.127 506.955C419.833 503.599 446.592 501.633 473.383 499.166L499.571 496.589C505.463 496.005 511.839 494.937 517.739 495.488C523.707 496.045 530.602 499.07 536.291 501.115C520.469 504.25 504.752 507.133 488.703 508.89C464.902 511.496 441.052 513.235 417.274 516.166C410.265 517.03 403.071 517.65 396.126 518.893C412.029 523.568 431.191 532.456 446.314 539.381C489.036 558.942 559.83 594.251 583.17 637.116C585.857 642.05 588.151 647.51 589.333 653.018C582.994 652.987 576.56 653.175 570.246 652.622L577.466 652.69C571.388 640.847 562.274 630.715 552.796 621.482C505.144 575.063 434.26 546.457 373.272 521.216C366.649 522.15 359.665 523.694 353.451 526.199C351.187 527.111 348.614 528.14 347.591 530.505C348.414 534.709 362.454 541.191 366.675 543.674C386.633 555.416 409.021 573.537 418.806 594.787C425.044 608.335 424.959 617.755 419.9 631.489C414.462 631.489 408.333 632.745 403.019 631.821L403.023 631.003Z"/>
	<path fill="#FEFEFE" d="M458.801 350.826C464.083 354.668 468.883 360.937 473.332 365.786Q490.501 384.645 507.267 403.863L507.43 483.459Q481.356 484.661 455.27 485.567C439.862 486.648 424.367 486.711 408.935 487.36C409.268 463.167 408.626 438.959 408.556 414.765C413.961 409.043 418.499 402.227 423.303 395.979C434.941 380.842 446.281 365.242 458.801 350.826Z"/>
	<path fill="#374355" d="M471.046 394.531C472.571 394.48 474.244 394.342 475.749 394.616C478.485 395.112 481.19 397.086 482.603 399.454Q482.864 399.895 483.079 400.359Q483.294 400.824 483.462 401.308Q483.629 401.792 483.746 402.29Q483.864 402.788 483.931 403.296Q483.997 403.803 484.012 404.315Q484.027 404.827 483.991 405.338Q483.954 405.848 483.866 406.353Q483.778 406.857 483.639 407.35C482.613 411.095 480.208 413.088 476.952 414.927C475.381 415.064 473.6 415.149 472.056 414.805C469.219 414.174 466.568 412.288 465.158 409.734C463.828 407.324 463.571 404.374 464.374 401.749C465.493 398.088 467.79 396.259 471.046 394.531Z"/>
	<path fill="#374355" d="M446.755 394.078C448.33 394.084 450.073 394.319 451.513 394.993Q452.01 395.231 452.48 395.519Q452.95 395.807 453.388 396.141Q453.826 396.476 454.227 396.853Q454.629 397.231 454.989 397.647Q455.35 398.064 455.666 398.515Q455.983 398.967 456.251 399.448Q456.519 399.93 456.737 400.436Q456.954 400.942 457.119 401.468Q457.292 402.013 457.409 402.573Q457.527 403.133 457.589 403.701Q457.65 404.27 457.655 404.842Q457.66 405.414 457.608 405.983Q457.555 406.553 457.447 407.114Q457.339 407.676 457.175 408.224Q457.011 408.772 456.794 409.301Q456.577 409.83 456.308 410.335C454.668 413.409 452.384 414.662 449.152 415.615C447.381 415.538 445.68 415.269 444.074 414.468Q443.566 414.213 443.087 413.906Q442.607 413.6 442.162 413.246Q441.717 412.891 441.311 412.493Q440.905 412.095 440.543 411.657Q440.18 411.219 439.864 410.745Q439.549 410.272 439.284 409.769Q439.018 409.266 438.807 408.738Q438.595 408.21 438.439 407.663C437.605 404.774 437.934 401.566 439.492 398.974C441.221 396.096 443.589 394.855 446.755 394.078Z"/>
	<path fill="#374355" d="M470.963 422.566C472.451 422.474 474.041 422.399 475.511 422.671C478.482 423.218 481.304 425.256 482.835 427.847C484.313 430.347 484.76 433.399 483.853 436.18C482.749 439.562 480.281 441.517 477.197 443.013C474.878 443.456 472.879 443.636 470.621 442.786Q470.143 442.605 469.685 442.377Q469.227 442.149 468.795 441.877Q468.362 441.605 467.959 441.29Q467.555 440.976 467.186 440.623Q466.816 440.27 466.483 439.882Q466.15 439.494 465.857 439.075Q465.565 438.656 465.316 438.209Q465.066 437.763 464.863 437.294Q464.642 436.783 464.472 436.252Q464.302 435.722 464.185 435.177Q464.069 434.632 464.006 434.079Q463.943 433.525 463.936 432.968Q463.928 432.411 463.975 431.856Q464.022 431.301 464.124 430.753Q464.225 430.205 464.38 429.67Q464.535 429.135 464.742 428.618C465.977 425.558 468.038 423.911 470.963 422.566Z"/>
	<path fill="#374355" d="M444.493 422.573C446.641 422.43 448.762 422.318 450.842 422.985C453.435 423.816 455.745 425.721 456.991 428.146C458.328 430.746 458.584 433.743 457.553 436.493C456.257 439.949 453.728 441.663 450.504 443.143C448.557 443.528 446.72 443.528 444.815 442.897C442.223 442.038 440.185 440.231 438.977 437.789Q438.726 437.278 438.527 436.745Q438.328 436.212 438.182 435.661Q438.037 435.111 437.947 434.549Q437.857 433.987 437.823 433.419Q437.789 432.85 437.812 432.282Q437.834 431.713 437.913 431.149Q437.991 430.586 438.126 430.032Q438.26 429.479 438.448 428.942C439.557 425.774 441.53 423.973 444.493 422.573Z"/>
	<path fill="#FEFEFE" d="M596.376 436.003L612.847 435.996C612.731 444.727 610.495 460.763 612.722 468.562C615.268 477.475 623.636 475.058 629.762 479.056C635.401 482.735 636.697 493.799 643.096 499.164C645.812 501.44 649.204 502.021 652.159 503.811C655.856 506.05 656.001 509.367 656.897 513.155C657.525 515.811 658.428 518.051 660.864 519.506C663.824 521.274 670.187 522.48 673.481 521.457C677.683 520.153 677.774 514.929 679.613 511.607C684.611 502.584 692.854 514.145 699.839 512.562C708.496 510.601 711.856 498.801 720.965 496.407C724.326 495.523 727.537 495.774 730.499 497.657C733.716 499.702 735.939 502.983 737.887 506.187C744.134 516.462 741.263 524.8 737.73 535.261C736.866 537.819 735.738 540.472 735.575 543.187C735.186 549.641 737.937 554.854 739.017 560.991C739.925 566.149 738.849 577.683 736.742 582.507C734.009 588.764 728.664 595.002 724.726 600.601L696.864 639.657C675.197 637.628 653.592 634.99 631.9 633.078C622.282 632.562 612.676 631.482 603.056 630.882C595.245 619.089 587.031 607.679 576.887 597.745C552.544 573.908 497.061 540.578 464.891 529.186C477.104 527.073 489.54 525.869 501.84 524.328L564.316 516.325C578.296 514.483 593.711 513.561 607.135 509.284C610.536 508.2 617.207 505.955 618.607 502.447C619.083 501.257 618.733 500.217 618.138 499.153C614.988 493.527 602.342 490.063 596.454 488.168L596.376 436.003Z"/>
	<path fill="#FEFEFE" d="M355.848 108.973C349.667 108.386 342.832 113.491 338.232 117.3C335.477 119.582 331.963 123.581 328.378 124.093C327.425 123.612 327.393 123.834 327.009 122.725C326.152 120.247 326.087 117.009 326.307 114.418C329.448 110.763 336.457 108.629 340.89 106.702C347.409 103.869 353.938 100.958 360.661 98.637C385.169 90.1769 414.842 84.8765 440.727 82.9137C520.404 76.8721 601.289 93.8975 665.125 143.654Q653.853 139.738 642.719 135.446C638.206 133.72 633.712 131.669 629.08 130.298C624.732 131.22 620.328 132.036 616.083 133.363C616.16 135.256 616.193 137.16 616.319 139.049C617.583 140.029 618.915 141.031 619.865 142.333C622.252 145.605 632.419 164.955 634.141 169.089C633.615 172.069 631.995 177.197 633.712 179.74C633.884 179.805 634.058 179.864 634.228 179.933C638.547 181.671 639.727 187.943 644.368 188.291C647.214 186.361 646.098 181.535 649.802 181.235C652.465 182.37 655.206 184.438 656.29 187.223C657.8 191.106 655.171 194.253 659.785 196.493C662.525 197.823 666.434 198.979 669.462 198.688C670.317 198.094 671.062 197.509 671.836 196.812C672.8 195.943 673.786 195.435 674.956 194.9C675.686 193.704 675.967 193.202 675.669 191.787C675.118 189.164 672.767 186.425 671.342 184.179C668.008 178.926 665.089 173.441 660.75 168.908C656.975 164.964 652.462 161.778 648.891 157.629C644.978 153.082 641.816 148.016 638.993 142.738C650.123 149.612 671.388 173.151 681.791 175.582L682.512 175.06C682.848 171.573 679.028 166.977 677.475 163.89C681.398 166.186 684.971 169.063 686.164 173.705C686.947 176.756 686.6 178.799 685.467 181.671C688.961 187.581 694.781 196.265 693.229 203.383C692.912 204.837 692.19 205.949 690.879 206.71C685.216 210.001 670.686 205.324 668.273 212.24C665.286 220.798 669.547 228.603 658.553 235.009C654.643 237.287 650.28 238.764 646.35 241.033C651.744 246.206 667.791 261.052 668.204 268.541C668.284 269.989 667.297 271.422 666.29 272.408C665.521 273.161 664.64 273.588 663.551 273.636C660.196 273.783 654.58 268.221 652.319 270.127C652.054 270.35 651.613 270.816 651.36 271.078C645.881 271.964 642.153 270.985 637.274 274.369C641.036 283.802 643.154 293.082 645.612 302.884C646.256 305.448 646.639 308.288 647.42 310.788C647.64 311.493 648.061 312.521 648.748 312.859C651.842 314.381 656.972 311.611 660.346 311.606C664.002 311.601 667.619 312.627 671.267 312.861C675.48 309.404 679.877 305.606 683.552 301.574C682.017 299.285 680.396 297.019 678.981 294.654C679.407 290.076 680 286.186 681.885 281.95C684.631 280.771 687.392 279.787 690.226 278.841C690.292 274.639 689.612 266.784 692.596 263.632C693.167 263.029 693.632 263.076 694.401 262.906C701.238 264.659 707.106 275.071 714.787 278.389C717.021 279.354 719.639 279.709 722.026 280.154C722.112 280.324 722.201 280.494 722.285 280.666C724.368 284.96 724.199 291.786 729.151 293.613C730.197 293.999 730.883 294.168 731.999 293.923C732.905 292.657 732.919 291.792 732.622 290.266C731.547 284.745 727.031 274.648 722.244 271.506C714.49 266.418 709.923 273.867 706.505 260.183C706.08 258.481 705.787 257.232 706.533 255.611C707.91 255.11 708.819 255.327 710.144 255.948C720.155 260.644 738.18 281.624 743.788 291.476C746.509 296.257 747.9 301.535 750.313 306.419L756.57 301.71C753.672 295.837 748.187 286.176 750.35 279.573C750.752 278.345 751.187 277.96 752.283 277.352C754.203 277.656 755.349 278.669 756.49 280.167C761.765 287.093 763.406 306.504 771.179 307.46C771.936 307.553 772.08 307.511 772.763 307.451L773.234 306.697C773.12 306.537 773.004 306.378 772.891 306.216C772.043 305 771.43 304.269 771.501 302.711L772.081 301.978C774.117 302.547 775.966 305.009 777.422 306.521Q780.492 305.742 783.527 304.839C785.693 310.116 790.918 329.731 788.159 334.654C787.79 335.314 787.709 335.341 787.236 335.816C780.123 336.345 766.445 327.769 759.602 328.49C758.937 329.309 758.801 329.477 758.908 330.599C759.286 334.553 763.314 338.852 760.273 342.808C759.644 343.627 758.972 343.916 758.01 344.26C752.904 344.098 749.905 338.716 745.893 336.253C741.471 333.538 735.766 333.157 731.934 329.301C729.329 326.678 728.13 323.442 727.256 319.929C728.222 315.851 729.869 312.48 731.764 308.76C727.495 307.474 723.198 306.612 718.829 305.76C714.718 307.53 710.043 310.862 705.457 309.133C703.974 308.574 702.624 307.619 701.306 306.753C693.033 310.01 688.33 317.517 680.593 321.083C672.69 324.725 663.208 315.227 658.12 326.545C656.084 331.073 652.518 338.391 651.561 343.041C650.016 350.552 654.314 363.261 645.377 366.909C642.037 368.273 638.189 368.318 634.896 369.788C631.029 371.515 620.978 385.174 619.167 389.317C615.408 397.918 616.443 412.046 613.979 421.911C600.568 406.608 589.858 388.812 576.505 373.48L563.06 373.588C563.063 356.765 563.508 339.821 563.086 323.013C559.795 318.925 554.987 315.157 550.467 312.507C540.652 315.108 528.219 317.818 519.315 322.563Q519.326 327.266 519.526 331.965Q500.785 327.093 482.37 321.109C472.609 317.963 462.811 313.916 452.645 312.405C432.411 340.646 410.921 368.178 390.019 395.94C384.329 403.498 378.174 410.898 372.695 418.588C371.763 419.896 371.062 421.093 370.74 422.671L371.127 423.486C379.941 425.135 390.005 423.445 399.003 423.582L398.962 497.377C386.493 497.801 373.986 499.124 361.536 499.985C355.89 500.375 349.596 501.338 343.986 500.539C331.99 498.831 313.234 482.724 302.018 494.219C297.552 498.795 294.67 507.109 287.287 507.355C285.842 507.404 284.815 507.232 283.515 506.624C281.469 502.636 281.528 500.986 276.696 499.462C269.948 497.335 257.692 497.417 253.905 490.538C248.165 480.109 261.3 456.3 246.804 451.557C240.89 449.623 229.387 451.857 225.854 446.413C225.969 443.568 231.144 439.332 232.809 436.874C237.835 429.451 240.062 419.83 233.486 412.705C232.002 411.096 229.957 409.555 227.648 409.628C224.163 409.739 220.694 413.063 218.724 415.67C216.195 419.014 213.766 424.265 209.241 424.905C207.14 425.202 205.134 424.76 203.425 423.482C197.9 419.349 195.795 407.013 195.095 400.491C193.859 388.982 199.263 380.048 202.514 369.469C203.847 365.132 204.559 360.523 206.032 356.256C210.019 352.692 214.518 349.757 219.267 347.303C225.93 349.477 231.333 353.257 237.318 356.756C240.391 354.313 243.405 351.916 246.772 349.887C251.313 351.991 255.29 354.442 259.223 357.533C263.123 368.859 265.877 380.707 270.186 391.86L279.573 389.256C278.38 377.907 276.218 366.217 276.215 354.814L276.687 354.2C281.798 347.627 290.117 339.218 297.371 335.102C301.642 332.68 306.754 331.046 310.454 327.77C312.269 326.162 313.634 324.101 313.435 321.584C313.045 316.631 305.571 312.013 309.612 307.121C312.537 303.58 317.487 303.273 320.8 300.394C326.968 295.034 324.822 286.021 336.072 285.218C340.977 284.868 347.054 287.378 350.962 283.341C351.501 282.784 351.707 282.156 351.939 281.439C351.562 278.326 349.045 276.061 351.53 273.181C353.083 271.382 371.928 264.222 374.721 264.368C376.055 264.437 376.64 264.821 377.395 265.924C379.478 268.968 377.863 273.235 381.76 275.075C385.877 274.764 387.745 271.621 391.06 269.701C395.034 267.398 399.768 267.534 402.911 263.732C404.034 262.374 404.859 261.258 404.887 259.436C404.256 258.046 403.425 257.374 402.002 256.895C397.492 255.374 391.41 257.713 388.319 252.991C387.754 250.447 388.589 248.523 389.979 246.373C391.396 244.181 395.653 240.18 395.665 237.775C393.031 235.739 388.183 236.331 385.038 236.715C378.856 237.469 373.73 240.165 367.944 241.13C366.785 241.323 366.446 241.245 365.447 240.741C365.107 239.38 365.407 238.391 366.082 237.201C367.084 235.43 368.349 233.738 369.504 232.061C377.551 231.669 385.496 230.601 393.515 229.929C398.258 229.532 403.121 229.639 407.817 228.835C412.339 228.062 421.172 223.53 425.117 224.163C425.547 224.986 425.558 224.642 425.294 225.511C423.188 232.442 410.53 237.558 414.997 246.495C417.584 251.67 424.219 253.64 429.348 255.135C431.349 255.718 433.34 256.249 435.274 257.033C436.658 257.594 437.944 257.946 439.422 257.371C441.415 256.595 442.455 254.431 442.996 252.503C444.242 248.068 444.117 241.586 443.113 237.119C442.238 236.179 441.781 235.784 440.429 235.838C437.703 235.947 434.624 237.234 432.048 236C431.215 234.608 431.097 233.744 431.502 232.15C432.727 227.338 436.388 220.314 433.746 215.535C432.995 214.177 431.819 213.164 430.279 212.845C428.657 212.509 426.933 212.483 425.282 212.419C425.229 212.228 425.173 212.037 425.122 211.845C423.448 205.47 423.247 183.838 418.691 180.708C417.848 180.129 416.846 179.777 415.836 180.118C409.616 182.217 408.839 195.126 400.083 192.211C398.25 191.6 396.367 190.431 395.464 188.662C392.284 182.433 398.796 174.661 389.54 171.039C384.065 168.897 372.356 167.945 367.003 170.473C365.835 171.025 364.698 171.715 363.614 172.414C362.884 180.294 363.525 188.515 363.669 196.435C356.561 200.524 345.923 201.785 343.305 210.68C341.246 217.677 341.948 223.35 334.737 227.629C333.397 228.424 331.962 229.168 330.357 228.84C329.261 228.616 328.629 227.695 328.165 226.75C324.054 218.366 330.485 207.318 328.945 201.738C326.676 193.512 315.459 196.182 315.602 185.766Q315.611 184.771 315.722 183.783Q315.834 182.794 316.047 181.822Q316.26 180.851 316.572 179.906Q316.884 178.961 317.292 178.054C321.678 168.483 333.039 164.696 340.978 158.87C343.718 156.859 346.622 152.843 349.8 151.786C350.92 151.413 352.16 151.701 353.079 152.412C354.271 153.336 354.97 155.536 355.553 156.871C357.545 157.981 360.328 159.946 362.679 159.469C363.456 159.312 364.003 158.726 364.405 158.061C367.505 152.935 363.456 148.224 370.766 145.372C374.766 143.812 381.04 142.238 382.789 137.805C383.344 136.4 383.287 135.219 383.032 133.764C380.886 131.52 375.914 131.673 372.952 131.61C369.746 131.542 366.711 131.637 363.551 132.226C361.741 134.606 359.939 137.336 356.711 137.745C355.489 137.9 354.208 137.409 353.362 136.531C352.12 135.244 351.909 132.869 352.155 131.181C352.495 128.854 353.832 126.264 355.752 124.855C356.836 124.059 359.084 123.748 360.429 123.426C361.884 121.795 363.809 119.996 363.751 117.63C363.713 116.048 362.66 114.884 361.451 114.011C360.217 113.119 358.365 112.669 357.808 111.258L359.652 110.446C365.171 110.623 370.563 109.606 375.79 107.919C378.892 106.919 387.211 104.574 388.495 101.344C388.742 100.722 388.327 100.443 388.014 99.9336C384.05 98.0325 379.861 98.4415 375.57 98.4674C370.169 105.374 363.89 106.816 355.848 108.973Z"/>
	<path fill="#4A5463" d="M390.783 109.488C391.681 110.362 392.273 112.296 392.33 113.548C392.383 114.691 391.801 115.818 391.09 116.68C386.685 122.028 373.42 125.649 366.7 126.307C366.061 125.375 365.771 124.79 365.585 123.672C366.75 121.72 387.167 111.28 390.783 109.488Z"/>
	<path fill="#4A5463" d="M555.235 95.4191C555.344 95.4271 555.455 95.4237 555.563 95.4431C558.985 96.058 563.095 97.1569 565.338 99.9745C566.452 101.376 567.159 103.184 566.701 104.988C566.372 106.283 565.617 107.132 564.458 107.749C562.099 109.006 559.286 107.92 557.046 107.006C553.547 105.488 549.883 104.355 546.379 102.831C544.735 102.115 542.648 101.316 541.942 99.5493C543.969 97.4459 548.353 99.4265 551.038 98.9336C553.092 98.5566 553.816 97.5301 554.914 95.9044C555.023 95.7438 555.128 95.5809 555.235 95.4191Z"/>
	<path fill="#4A5463" d="M614.687 208.808C617.898 210.233 620.087 213.386 623.503 214.96C624.456 218.52 625.825 221.664 627.417 224.976L621.174 226.795C620.619 227.171 620.164 227.467 619.5 227.665C617.971 228.122 615.953 227.691 614.72 226.748C611.514 224.295 610.356 219.623 609.693 215.843C611.176 213.391 612.989 211.115 614.687 208.808Z"/>
	<path fill="#4A5463" d="M560.384 151.494C563.329 151.06 568.117 153.883 570.909 155.115L570.632 157.02C570.473 158.144 570.378 159.351 569.932 160.406C567.98 165.021 559.682 166.458 555.379 168.068C552.773 168.031 547.192 162.845 544.932 161.212C546.17 159.897 547.374 158.7 548.003 156.969C548.497 155.607 549.071 154.423 549.764 153.152C551.442 152.553 553.293 152.74 555.056 152.764C556.984 152.791 558.079 152.557 559.861 151.742C560.037 151.662 560.21 151.577 560.384 151.494Z"/>
	<path fill="#4A5463" d="M262.774 404.683C269.403 404.488 284.231 413.519 289.527 417.881C291.793 419.746 294.946 422.976 294.974 426.158C294.986 427.561 294.654 428.473 293.62 429.435C291.221 431.669 286.818 430.737 283.876 430.491C283.275 430.464 282.587 430.464 281.992 430.332C278.081 429.464 276.24 422.385 273.822 419.338C269.39 413.754 259.577 414.171 253.086 413.596C252.537 412.589 251.881 411.524 251.494 410.444C251.027 409.141 251.496 408.407 252.085 407.264C254.951 405.005 259.265 405.088 262.774 404.683Z"/>
	<path fill="#4A5463" d="M614.166 186.752C624.652 190.812 623.946 196.014 631.014 201.952C633.956 204.424 637.708 206.169 640.906 208.326C644.716 210.895 648.164 214.176 651.607 217.216L653.762 226.161C652.175 226.928 650.503 227.542 648.866 228.196C646.233 229.05 642.647 230.544 639.863 230.342C638.429 230.239 637.066 229.694 636.298 228.41C634.768 225.851 636.13 222.007 636.838 219.377C628.565 210.154 616.268 203.373 611.332 191.671C612.356 190.086 613.24 188.397 614.166 186.752Z"/>
	<path fill="#4A5463" d="M305.67 430.492L321.989 430.461C326.324 433.669 329.734 439.089 334.506 441.51C337.063 442.808 340.026 443.429 342.69 444.507C346.46 446.033 347.482 449.438 348.924 452.92C341.537 452.693 334.265 450.333 326.923 450.464C321.718 450.558 317.74 453.667 312.385 453.429C310.107 453.046 307.672 452.779 305.471 452.077C301.603 450.843 298.006 448.419 294.088 447.389C288.65 445.959 280.194 448.17 275.517 444.749C274.356 443.899 274.2 443.216 273.922 441.863C278.33 434.926 302.815 445.732 306.501 444.714C307.057 444.17 307.588 443.667 307.875 442.922C309.343 439.106 307.154 434.034 305.67 430.492Z"/>
	<path fill="#4A5463" d="M442.245 91.6852Q443.053 91.5989 443.862 91.5276C445.532 91.3809 447.354 91.1182 448.698 92.2463C447.554 95.2791 434.084 98.5716 431.08 100.219C429.893 100.869 429.037 101.882 428.183 102.913C425.709 105.901 406.905 117.285 402.236 119.445C407.749 122.275 413.375 122.833 419.407 123.763C424.841 128.695 418.068 134.437 421.474 138.556C424.177 141.826 429.794 141.357 433.562 141.359Q433.576 143.505 433.501 145.65C433.414 147.668 432.996 150.656 431.312 151.998C429.828 153.18 425.446 150.945 423.471 150.836C417.052 152.888 422.542 163.507 418.932 168.19C415.599 170.304 406.591 168.007 402.867 167.284C400.364 167.339 398.2 168.203 395.86 169.007C393.79 165.414 388.096 159.329 388.009 155.315C387.99 154.444 388.335 153.96 388.966 153.36C390.697 151.712 394.401 150.566 396.565 149.315C399.367 147.694 401.845 145.69 404.231 143.518C401.311 138.747 398.607 133.778 394.554 129.865C392.53 129.416 389.092 129.034 387.654 127.511C388.369 125.709 391.448 124.31 392.943 122.973C396.658 119.65 400.671 113.683 401.742 108.797C402.123 107.061 402.573 105.34 402.994 103.613C406.84 103.601 410.719 103.707 414.56 103.573C416.123 103.519 417.672 103.434 418.802 102.245C418.546 99.4392 415.615 98.1159 415.379 95.3154C416.648 93.7733 418.489 93.0005 420.224 92.0744C423.563 92.4561 426.096 93.2802 429.06 94.8069C433.556 93.2874 437.489 92.1516 442.245 91.6852Z"/>
	<path fill="#EDBB58" d="M541.781 227.874C542.148 230.821 540.633 235.034 539.94 237.961C538.281 244.973 528.319 277.643 530.157 282.406C531.43 283.412 532.688 283.406 534.229 283.219C542.71 282.192 566.839 271.138 576.211 267.343C577.923 266.649 581.768 264.572 583.432 264.71C569.966 275.096 546.409 282.095 537.084 296.245C536.968 296.421 536.855 296.6 536.741 296.777C543.104 300.487 550.426 302.762 557.288 305.368C568.515 309.632 579.72 313.833 590.495 319.164C570.322 314.967 551.037 306.642 530.911 302.597C529.83 302.814 528.965 303.498 528.254 304.321C525.864 307.089 526.586 312.264 526.665 315.652C525.415 316.905 523.908 317.94 522.499 319.013C522.295 315.585 522.227 312.152 522.022 308.725C521.931 307.19 521.904 305.678 520.716 304.624C515.371 307.358 511.773 324.403 507.562 326.254C506.174 325.928 505.741 325.542 504.801 324.485C504.695 324.073 504.43 323.67 504.484 323.248C504.773 320.985 513.41 308.867 515.225 305.344C515.56 304.403 515.726 303.557 515.902 302.578C515.44 301.399 515.433 301.347 514.36 300.686C506.874 300.918 487.109 314.502 480.967 319.524C478.521 318.611 475.967 317.878 473.481 317.074C478.254 314.663 482.912 312.016 487.685 309.595C495.605 305.577 503.732 302.036 510.644 296.372C499.45 290.342 486.966 286.27 474.893 282.374C469.668 280.688 464.284 279.236 459.228 277.087C468.942 278.124 507.399 287.388 512.358 286.506C513.9 286.232 514.457 285.55 515.238 284.273C516.031 276.912 493.647 246.042 490.65 235.87C493.118 237.868 495.101 242.188 497.034 244.845C501.378 250.815 506.036 256.578 510.438 262.512C514.17 267.542 517.659 272.851 521.754 277.592L522.227 278.135C523.722 276.571 525.012 275.116 525.988 273.159C528.625 267.868 530.23 261.982 532.084 256.386C535.242 246.855 538.31 237.297 541.781 227.874Z"/>
	<path fill="#4A5463" d="M488.09 92.5219C493.146 92.2501 503.855 104.075 509.754 106.961C512.065 108.092 514.644 108.536 517.148 109.043C518.151 111.61 519.076 114.592 520.585 116.897C525.62 124.584 531.964 129.745 534.541 139.025C526.89 145.239 520.684 147.34 511.103 148.646C507.267 153.158 505.177 158.768 502.465 163.976C500.334 164.317 497.477 164.452 495.669 165.675C489.48 169.862 500.162 177.395 498.377 183.211C497.681 185.481 495.495 186.331 493.572 187.364C491.59 185.529 490.043 183.599 487.762 182.065C484.476 181.976 480.902 182.117 477.663 181.554C474.375 180.984 472.807 179.877 470.986 177.12C467.982 172.572 460.047 158.431 459.446 152.991C459.316 151.817 459.644 150.448 460.02 149.343C461.307 145.569 464.454 142.34 465.223 138.47C463.513 130.233 458.779 135.531 455.94 132.001C453.583 129.071 454.634 124.085 454.891 120.653L449.409 112.46C447.712 113.434 445.244 115.224 443.252 115.268C441.784 115.3 441.416 114.916 440.396 114.012C439.019 110.38 440.257 105.87 440.772 102.126C453.229 95.8106 466.823 99.5677 479.906 97.1439C483.094 96.5532 484.199 93.3853 487.562 92.6295C487.737 92.5901 487.914 92.5578 488.09 92.5219Z"/>
</svg>
