<?xml version="1.0" encoding="utf-8" ?>
<svg xmlns="http://www.w3.org/2000/svg" xmlns:xlink="http://www.w3.org/1999/xlink" width="1024" height="1024">
	<path fill="#394456" d="M311.45 703.052C329.862 703.479 348.287 703.922 366.698 703.198C366.966 707.789 367.337 712.832 366.385 717.365L365.113 717.768C364.284 715.779 363.785 713.821 363.317 711.72C356.987 708.216 351.304 708.58 344.306 708.647C343.916 715.529 342.35 758.552 345.486 762.149C347.091 763.992 350.197 764.928 352.403 765.85C343.086 766.292 333.895 766.186 324.577 765.9L324.67 765.568L325.483 765.281C327.702 764.507 331.152 764.365 332.488 762.154C335.476 757.212 334.53 717.142 334.452 708.584C329.063 708.472 319.548 707.271 315.251 710.946C313.596 712.362 312.794 714.966 310.731 715.775C309.312 712.137 310.844 706.849 311.45 703.052Z"/>
	<path fill="#394456" d="M650.271 702.979C666.409 702.342 682.689 702.955 698.845 702.99C699.423 706.045 701.095 711.628 700.079 714.599C696.877 714.068 692.611 708.624 687.814 707.58C685.531 707.083 682.797 707.334 680.459 707.366L680.225 735.288C680.095 744.313 679.628 753.34 680.902 762.305C683.151 764.698 687.172 765.511 690.207 766.483C680.564 766.636 670.983 766.767 661.342 766.394C663.171 765.726 665.814 765.027 667.206 763.633C668.672 762.166 668.98 759.955 669.249 757.975C670.017 752.324 669.543 746.164 669.534 740.45L669.482 707.424C666.204 707.329 662.606 706.964 659.375 707.61C654.045 708.676 651.712 712.379 648.921 716.601C648.815 711.809 648.904 707.602 650.271 702.979Z"/>
	<path fill="#394456" d="M496.689 703.698C500.817 703.479 504.88 703.988 508.963 704.533C509.412 708.832 509.208 713.027 508.832 717.323C507.296 715.136 505.798 712.743 504.055 710.723C502.527 708.953 500.454 707.632 498.077 707.5C495.294 707.345 492.111 709.227 490.234 711.158C488.5 712.943 487.387 715.709 487.536 718.201C487.997 725.91 499.399 731.101 504.696 735.555C508.56 738.805 512.02 743.375 512.272 748.597C512.502 753.364 509.687 758.214 506.419 761.491C500.055 767.873 491.68 767.587 483.362 767.426C480.803 767.025 478.123 766.783 476.52 764.473C473.541 760.178 476.06 752.339 476.949 747.56C477.698 751.976 478.072 757.759 481.873 760.691C484.821 762.965 489.168 763.427 492.748 762.843C496.06 762.302 499.046 759.923 500.87 757.17C507.924 746.521 479.752 739.421 477.432 724.373C476.725 719.788 478.064 714.448 480.955 710.802C484.848 705.891 490.801 704.483 496.689 703.698Z"/>
	<path fill="#394456" d="M624.706 702.325C628.081 706.217 629.562 712.342 631.242 717.152C634.907 727.646 643.336 753.989 649.888 761.876C651.783 764.157 654.094 765.226 656.687 766.526L634.467 766.794L636.212 762.651C634.792 756.774 632.465 751.19 630.159 745.62L621.854 745.542L612.477 745.373C610.222 751.134 608.286 756.914 606.772 762.916C608.881 764.323 611.124 765.404 613.389 766.532C606.325 766.223 599.197 766.324 592.123 766.195C594.6 765.494 597.023 764.687 599.455 763.85C602.556 757.864 604.765 751.304 607.048 744.975C612.233 730.603 616.984 715.572 624.706 702.325ZM621.384 721.377C618.74 728.047 616.271 734.837 613.47 741.439L620.662 741.08L628.712 741.019C626.978 735.619 624.739 725.782 621.384 721.377Z"/>
	<path fill="#394456" d="M750.505 702.713C757.533 702.383 764.575 702.947 771.613 702.56C769.321 703.515 765.917 704.542 764.891 706.999C762.804 711.997 762.501 757.833 764.841 762.555C766.125 765.144 771.469 766.174 774.053 766.944C764.7 766.673 755.365 766.945 746.013 766.502C747.406 765.721 748.983 764.945 750.114 763.799C755.778 758.053 753.581 741.502 753.436 733.873L723.265 733.965C722.948 741.096 721.214 754.448 724.003 760.915C725.491 764.364 727.944 765.225 731.181 766.505C721.965 767.122 712.363 766.496 703.095 766.531C706.194 765.413 708.8 764.306 711.439 762.282C712.617 755.545 713.783 710.959 710.853 706.763C709.431 704.726 705.128 703.857 702.849 703.132C712.431 702.836 722.056 703.015 731.644 703.014C729.626 703.718 727.543 704.374 725.979 705.901C720.411 711.341 723.249 721.782 723.195 728.804L723.186 729.383C732.997 728.933 743.302 728.757 753.102 729.325C753.718 723.028 754.979 713.105 751.746 707.53C750.589 705.535 749.199 704.665 747.003 704.102C746.315 703.926 746.67 704.126 746.089 703.501C747.385 702.777 749.031 702.846 750.505 702.713Z"/>
	<path fill="#394456" d="M549.094 681.184C558.205 680.216 572.33 680.741 581.599 681.403C588.864 681.922 597.247 683.566 602.149 689.462C605.356 693.319 606.101 698.105 605.611 702.981C604.844 710.605 601.301 718.545 595.164 723.285C591.203 726.343 583.416 729.878 578.37 729.246C579.37 727.669 582.311 726.424 583.976 725.39C589.195 722.149 592.813 718.088 594.11 711.909C595.324 706.127 593.907 699.828 590.697 694.91C586.609 688.645 581.222 686.57 574.242 685.107L573.975 694.75Q573.235 717.531 573.24 740.323C573.27 745.766 572.66 752.375 574.051 757.598C575.233 762.037 581.038 763.2 584.594 765.332L585.166 765.68C577.805 766.51 559.12 767.415 552.395 765.927C551.875 763.969 559.069 762.196 560.546 758.183C562.375 753.215 562.056 691.844 559.03 686.685C557.569 684.195 553.603 684.455 551.208 683.593C549.873 683.113 549.624 682.411 549.094 681.184Z"/>
	<path fill="#394456" d="M444.119 703.239C448.218 705.581 461.747 744.172 465.509 751.749C468.133 757.035 471.283 761.486 475.071 765.997L460.421 765.133Q456.577 755.249 452.516 745.452Q442.777 745.477 433.039 745.638C429.544 750.991 427.596 756.623 426.146 762.821C428.329 764.186 430.697 764.983 433.101 765.858C411.467 767.113 389.453 766.303 367.788 765.779C370.174 765.157 372.885 764.655 374.703 762.867C378.318 759.31 377.519 752.087 377.661 747.375C378.046 739.202 379.002 716.351 376.322 709.495C375.276 706.82 371.871 705.96 369.427 704.914C376.558 703.951 383.76 704.299 390.932 704.436L387.676 707.477C386.195 717.651 385.491 743.531 386.868 753.594C387.19 755.95 387.751 759.087 389.854 760.543C392.667 762.491 397.371 762.499 400.591 761.865C406.376 760.724 409.294 756.249 412.407 751.734C411.12 756.161 410.366 760.664 409.709 765.219C411.21 764.981 412.739 764.759 414.22 764.416C416.56 763.873 417.794 762.603 419.088 760.648C422.222 755.912 424.081 750.017 426.158 744.766C431.609 730.982 436.412 715.924 444.119 703.239ZM442.316 720.395L434.077 741.507L443.625 741.379C445.909 741.292 448.208 741.256 450.489 741.109C448.839 736.124 445.844 724.089 442.316 720.395Z"/>
	<path fill="#EEBB59" d="M283.577 676.951C292.809 693.185 306.784 754.997 316.887 762.955C318.918 764.555 322.082 765.811 324.67 765.568L324.577 765.9C323.91 765.854 323.304 765.863 322.639 765.947C316.565 766.722 310.556 766.634 304.455 766.449C300.917 757.057 296.933 747.689 294.005 738.092C286.042 738.123 277.947 738.156 270.005 737.606C268.276 743.579 262.575 754.584 262.723 760.205C262.817 763.745 268.224 763.497 270.244 765.507L269.975 765.986C263.594 767.666 249.236 766.605 242.35 766.044C245.661 764.383 249.155 763.329 252.408 761.495C257.081 754.656 259.445 745.703 262.141 737.922Q267.491 722.622 272.533 707.217C275.881 696.991 278.954 686.693 283.577 676.951ZM281.294 700.889L271.775 732.364L281.808 732.179L291.738 732.154C288.857 721.962 286.491 710.109 281.294 700.889Z"/>
	<path fill="#394456" d="M373.085 521.23C436.956 547.728 515.542 578.882 562.235 631.375C565.941 635.541 569.953 640.267 572.928 644.987C574.534 647.535 575.685 650.464 577.44 652.893C568.435 652.178 559.28 652.202 550.249 652.006Q516.997 651.468 483.748 652.144Q458.311 652.773 432.899 654.073Q407.487 655.374 382.119 657.345Q356.75 659.317 331.443 661.958Q306.135 664.599 280.907 667.908Q255.678 671.217 230.545 675.192Q205.412 679.166 180.393 683.803Q155.375 688.44 130.487 693.737Q105.599 699.034 80.8605 704.986C87.0446 701.417 95.886 698.476 102.629 695.591C122.448 687.108 142.777 680.499 163.403 674.296C210.535 660.12 258.244 650.118 306.743 641.956C315.577 642.464 324.629 640.096 333.335 638.775C344.369 637.1 394.829 629.041 402.544 631.667C408.193 632.856 414.302 631.965 420.005 631.477C424.654 616.996 424.758 606.215 417.743 592.449C407.862 573.06 389.223 557.298 370.83 546.048C364.939 542.444 358.313 539.725 352.755 535.637C350.842 534.231 347.978 532.64 347.926 530.088C350.409 526.091 359.169 524.227 363.51 523.22Q368.28 522.14 373.085 521.23Z"/>
	<path fill="#4B5563" d="M209.549 647.312C196.395 634.105 185.661 618.261 175.875 602.474C139.241 543.372 122.358 480.298 122.491 410.926C122.536 387.376 125.502 364.611 130.503 341.619Q131.145 338.562 131.841 335.518Q132.538 332.473 133.289 329.442Q134.041 326.41 134.847 323.393Q135.653 320.375 136.513 317.373Q137.373 314.371 138.287 311.384Q139.201 308.398 140.169 305.428Q141.137 302.459 142.158 299.507Q143.179 296.555 144.253 293.623Q145.327 290.69 146.454 287.777Q147.581 284.864 148.76 281.972Q149.939 279.08 151.17 276.21Q152.401 273.339 153.683 270.491Q154.966 267.644 156.299 264.819Q157.633 261.995 159.017 259.196Q160.401 256.396 161.836 253.622Q163.27 250.847 164.754 248.099Q166.239 245.351 167.772 242.63Q169.306 239.909 170.888 237.217Q172.47 234.524 174.101 231.86Q175.731 229.196 177.409 226.562Q179.088 223.928 180.813 221.325Q182.538 218.722 184.31 216.15Q186.083 213.578 187.901 211.038Q189.719 208.499 191.582 205.992Q193.446 203.486 195.354 201.014Q197.263 198.541 199.215 196.104Q201.168 193.666 203.164 191.264Q205.16 188.862 207.199 186.497Q209.239 184.131 211.32 181.803Q213.402 179.474 215.525 177.183Q217.648 174.893 219.812 172.641Q221.976 170.389 224.18 168.176C290.049 102.481 384.08 66.2373 476.738 66.6299C564.468 67.0016 651.867 105.026 713.338 167.287Q716.438 170.401 719.46 173.591Q722.482 176.781 725.425 180.045Q728.367 183.308 731.228 186.643Q734.089 189.978 736.867 193.383Q739.645 196.788 742.338 200.26Q745.031 203.732 747.637 207.269Q750.244 210.807 752.763 214.408Q755.281 218.009 757.71 221.67Q760.139 225.332 762.477 229.053Q764.814 232.773 767.06 236.551Q769.305 240.328 771.456 244.159Q773.608 247.991 775.664 251.874Q777.72 255.757 779.68 259.69Q781.639 263.623 783.502 267.603Q785.364 271.583 787.127 275.608Q788.89 279.633 790.554 283.7Q792.217 287.767 793.78 291.874Q795.343 295.981 796.804 300.125Q798.264 304.269 799.623 308.448Q800.981 312.627 802.235 316.838Q803.49 321.049 804.64 325.29Q805.791 329.531 806.836 333.799Q807.881 338.067 808.821 342.36Q809.761 346.652 810.594 350.966Q811.428 355.281 812.155 359.614Q812.882 363.948 813.501 368.298Q814.121 372.648 814.633 377.013Q815.145 381.377 815.55 385.752Q815.954 390.128 816.25 394.512Q816.547 398.896 816.735 403.286Q816.923 407.676 817.002 412.07Q817.082 416.463 817.053 420.857Q817.021 424.676 816.905 428.493Q816.789 432.311 816.589 436.125Q816.389 439.938 816.105 443.747Q815.821 447.556 815.453 451.357Q815.085 455.158 814.634 458.951Q814.182 462.743 813.647 466.524Q813.112 470.306 812.494 474.075Q811.876 477.843 811.175 481.598Q810.473 485.352 809.69 489.09Q808.906 492.828 808.04 496.547Q807.174 500.267 806.227 503.967Q805.279 507.666 804.251 511.344Q803.222 515.022 802.112 518.677Q801.002 522.331 799.812 525.96Q798.623 529.589 797.353 533.191Q796.084 536.793 794.735 540.366Q793.386 543.939 791.959 547.482Q790.532 551.024 789.028 554.534Q787.523 558.044 785.941 561.521Q784.359 564.997 782.702 568.437Q781.044 571.878 779.31 575.281Q777.577 578.684 775.769 582.048Q773.961 585.412 772.08 588.736Q770.198 592.059 768.244 595.34Q766.289 598.622 764.263 601.859Q762.237 605.096 760.14 608.288Q758.043 611.48 755.876 614.625Q753.709 617.77 751.474 620.866Q749.238 623.963 746.935 627.009Q744.632 630.056 742.262 633.05Q739.892 636.045 737.457 638.987Q735.021 641.929 732.522 644.817C753.638 649.259 774.9 652.661 795.94 657.59Q814.391 661.957 832.644 667.093Q850.896 672.228 868.917 678.122Q886.939 684.016 904.699 690.658Q922.458 697.301 939.924 704.68L939.376 704.77L941.123 705.247C939.468 705.613 851.172 686.971 842.416 685.235Q794.852 675.469 746.818 668.372Q698.783 661.275 650.427 656.87C630.181 655.135 609.606 653.246 589.288 653.012L577.44 652.893C575.685 650.464 574.534 647.535 572.928 644.987C569.953 640.267 565.941 635.541 562.235 631.375C515.542 578.882 436.956 547.728 373.085 521.23Q368.28 522.14 363.51 523.22C359.169 524.227 350.409 526.091 347.926 530.088C347.978 532.64 350.842 534.231 352.755 535.637C358.313 539.725 364.939 542.444 370.83 546.048C389.223 557.298 407.862 573.06 417.743 592.449C424.758 606.215 424.654 616.996 420.005 631.477C414.302 631.965 408.193 632.856 402.544 631.667C394.829 629.041 344.369 637.1 333.335 638.775C324.629 640.096 315.577 642.464 306.743 641.956C295.605 632.755 270.736 613.971 269.654 598.986C269.551 597.559 269.908 596.367 270.851 595.272C272.343 593.543 276.116 591.608 276.097 589.127C276.042 582.008 268.897 581.196 268.85 573.831C268.817 568.561 270.826 562.804 272.161 557.715C277.848 555.444 282.627 553.778 286.368 548.651C287.612 540.487 284.855 519.437 280.028 513.182C278.965 511.804 277.587 511.244 275.864 511.198C270.592 511.057 265.356 515.893 261.472 518.945C245.818 508.888 238.272 504.485 233.011 486.121C231.774 481.805 230.456 477.76 227.366 474.343C223.31 469.858 216.646 469.17 212.537 464.699C207.973 459.734 206.934 451.556 201.472 447.494C194.734 442.483 185.912 444.294 180.237 437.038C176.989 432.886 175.535 427.51 173.212 422.84C170.07 416.526 165.175 410.373 163.466 403.442C161.171 394.133 163.997 383.819 164.077 374.377C164.156 365.106 162.897 355.759 163.636 346.496C164.395 336.996 168.124 327.981 166.442 318.3C158.338 331.365 159.154 357.458 159.505 372.697C159.545 374.448 160.079 378.713 158.525 379.488C156.672 378.537 155.492 376.353 154.856 374.422C152.252 366.522 153.314 355.625 154.048 347.425C157.144 312.815 165.428 284.53 181.734 253.922C190.269 237.902 201.969 223.282 208.807 206.463C198.327 220.177 188.608 233.901 180.077 248.935Q178.422 251.858 176.826 254.814Q175.23 257.77 173.694 260.757Q172.157 263.744 170.68 266.761Q169.204 269.778 167.788 272.824Q166.371 275.87 165.016 278.944Q163.661 282.018 162.368 285.118Q161.075 288.218 159.844 291.344Q158.612 294.469 157.444 297.618Q156.275 300.768 155.17 303.94Q154.065 307.112 153.023 310.305Q151.981 313.499 151.003 316.712Q150.025 319.926 149.112 323.159Q148.199 326.391 147.35 329.641Q146.501 332.891 145.718 336.158Q144.934 339.424 144.216 342.706Q143.497 345.987 142.845 349.282Q142.192 352.578 141.606 355.885Q141.019 359.193 140.499 362.511Q139.978 365.83 139.524 369.158Q139.07 372.486 138.683 375.823Q138.295 379.16 137.975 382.504Q137.654 385.847 137.4 389.197Q137.146 392.546 136.959 395.9Q136.772 399.254 136.652 402.611Q136.532 405.968 136.479 409.327Q136.426 412.686 136.441 416.045Q136.455 419.404 136.536 422.762Q136.617 426.12 136.766 429.476Q136.914 432.832 137.129 436.184Q137.345 439.536 137.627 442.883Q137.909 446.231 138.258 449.572Q138.607 452.913 139.023 456.246Q139.725 461.804 140.618 467.335Q141.51 472.865 142.593 478.362Q143.676 483.858 144.947 489.314Q146.218 494.77 147.677 500.179Q149.135 505.588 150.779 510.944Q152.423 516.299 154.25 521.595Q156.077 526.891 158.086 532.121Q160.094 537.35 162.282 542.508Q164.469 547.665 166.833 552.744Q169.197 557.823 171.734 562.818Q174.271 567.813 176.979 572.717Q179.687 577.621 182.562 582.43Q185.437 587.238 188.476 591.944Q191.515 596.65 194.714 601.249Q197.913 605.848 201.268 610.334Q204.624 614.82 208.132 619.188C214.754 627.371 221.669 635.628 229.276 642.923C222.745 644.545 216.177 646.139 209.549 647.312ZM458.286 81.7212C419.388 83.4081 381.189 89.4571 345.188 104.705C338.989 107.331 331.832 109.928 326.371 113.889C326.202 116.987 325.855 120.604 327.306 123.442L328.267 123.949C334.96 121.542 339.498 115.553 345.552 112.054C352.07 108.286 360.099 108.296 367.043 105.457C370.503 104.043 373.108 99.5933 376.692 98.7618C379.296 98.1575 384.212 97.9332 386.598 99.3706C387.253 99.7653 387.296 99.86 387.769 100.343C387.898 101.376 387.978 101.622 387.317 102.516C383.005 108.349 364.33 109.731 357.317 111.159C359.722 112.985 363.344 115.127 363.459 118.535C363.505 119.878 362.926 120.9 361.975 121.805C360.558 123.153 359.091 123.504 357.261 123.977C356.811 124.094 356.365 124.223 355.915 124.344C353.784 126.832 351.772 129.251 352.036 132.74C352.157 134.32 352.747 135.885 354.129 136.795C355.374 137.614 356.955 137.62 358.333 137.176C360.789 136.387 362.384 134.139 363.89 132.179C368.6 131.648 379.79 130.329 383.501 133.85C383.987 134.312 384.263 134.855 384.18 135.521C383.872 137.997 380.513 140.367 378.585 141.609C375.59 143.537 366.522 146.305 365.861 149.679C365.303 152.526 366.344 155.999 363.977 158.253C362.996 159.186 361.904 159.384 360.6 159.231C356.886 158.793 353.54 151.297 351.29 151.409C350.473 151.45 348.814 152.476 348.133 152.908C344.703 155.083 341.719 157.893 338.357 160.17C329.558 166.129 317.911 171.048 315.818 182.627C315.284 185.581 315.134 188.751 317.022 191.261C321.63 197.387 329.807 196.092 328.857 206.332C328.276 212.592 324.121 221.654 328.487 227.297C329.236 228.266 330.434 229.293 331.692 229.436C333.471 229.638 335.13 228.171 336.242 226.953C338.701 224.261 340.418 221.151 341.583 217.713C342.717 214.368 343.343 210.328 345.025 207.237C347.748 202.23 358.612 198.636 363.749 196.393C363.512 188.345 363.186 180.179 363.638 172.136C370.707 168.548 380.307 168.022 387.899 170.479C390.43 171.298 392.9 172.72 394.009 175.254C396.798 181.629 390.54 188.079 399.58 192.213C401.043 192.882 402.544 192.957 404.076 192.429C409.776 190.464 411.034 179.455 417.589 180.284C420.884 182.64 421.647 187.247 422.277 191.025C423.451 198.062 423.965 205.298 424.681 212.395C427.868 212.691 431.003 212.67 433.204 215.366C434.652 217.138 434.771 219.478 434.403 221.648C433.657 226.042 430.425 230.63 431.765 235.121C432.746 236.087 433.305 236.574 434.738 236.639C437.219 236.75 439.529 235.831 441.981 236.601C443.858 238.47 443.783 241.952 443.772 244.466C443.757 248.026 443.419 253.507 440.878 256.199C439.93 257.203 439.187 257.543 437.82 257.478C433.003 257.247 419.307 252.109 416.126 248.395C414.656 246.679 414.039 244.422 414.347 242.188C415.145 236.392 422.976 229.887 425.929 223.932C418.466 224.71 414.105 227.717 407.685 228.761C401.974 229.69 396.052 229.768 390.284 230.16C383.194 230.642 376.122 231.384 369.036 231.925C367.457 234.474 365.276 236.981 365.981 240.094C367.943 241.242 369.518 240.774 371.641 240.224C378.958 238.329 387.702 234.328 395.181 237.593L395.462 238.236C393.678 242.776 386.342 247.756 388.207 252.93C388.631 254.104 389.789 254.855 390.916 255.276C394.722 256.699 402.033 255.654 404.513 258.96C404.745 260.363 404.503 261.449 403.682 262.616C401.729 265.396 385.285 273.547 381.683 274.553C380.672 274.355 380.159 274.22 379.546 273.258C377.573 270.162 379.527 266.769 375.975 264.366C371.958 263.704 355.607 269.833 352.078 272.613C351.289 273.235 350.827 274.106 350.714 275.097C350.352 278.284 353.065 280.992 350.133 283.749C346.125 287.518 337.328 284.021 332.164 285.964C325.341 288.532 325.419 297.292 319.751 300.925C316.398 303.075 311.13 304.041 309.158 307.817C308.82 308.465 308.672 309.027 308.56 309.767C307.528 316.58 318.379 320.724 310.275 327.737C306.997 330.574 302.437 332.302 298.626 334.336C289.808 339.04 282.188 346.83 276.194 354.733C276.611 366.195 277.664 377.836 279.644 389.139L270.179 391.857C266.212 380.591 263.292 369.011 259.415 357.729C255.454 354.382 251.48 352.031 246.793 349.837C243.462 351.966 240.152 354.053 237.086 356.561C231.365 353.129 225.725 349.633 219.594 346.967C213.831 350.132 206.478 353.303 204.506 360.184C203.479 363.767 202.898 367.403 201.742 370.97C197.586 383.791 193.132 393.243 195.779 407.06C196.614 411.422 197.934 415.887 200.239 419.717C201.577 421.94 203.17 424.017 205.78 424.755C207.81 425.328 210.435 424.835 212.189 423.689C217.286 420.359 222.005 407.507 229.59 409.524C232.675 410.344 234.895 414.259 236.098 416.948C238.029 421.262 237.979 425.712 236.291 430.1C234.502 434.75 226.008 443.522 226.387 446.882C227.418 448.63 228.761 449.155 230.651 449.601C236.098 450.885 247.81 449.589 251.39 454.684C260.862 468.162 239.366 491.435 265.296 497.076C270.283 498.162 275.621 498.742 280.247 500.993C281.98 503.954 282.86 506.543 286.477 507.516C288.164 507.969 289.669 507.511 291.083 506.593C301.006 500.151 300.614 487.73 316.212 490.626C325.262 492.307 332.916 498.413 341.829 500.15C350.178 501.776 359.418 500.339 367.829 499.669C378.214 498.841 388.643 497.836 399.057 497.515C399.185 472.872 399.647 448.128 399.049 423.494C390.967 423.624 379.052 425.168 371.508 423.45L370.863 422.702C370.984 421.484 371.276 420.791 371.965 419.772C378.732 409.754 386.766 400.379 394.12 390.777C400.169 382.88 405.967 374.124 412.515 366.697C425.964 348.63 439.106 330.172 452.832 312.328C463.158 314.611 472.892 318.088 482.935 321.319Q501.014 327.093 519.36 331.953C519.516 328.667 519.601 325.42 519.516 322.131C528.809 317.227 540.316 315.076 550.452 312.394C555.351 315.122 559.161 319.101 562.915 323.213L562.921 373.641L576.511 373.504C589.826 388.91 600.144 407.028 614.061 421.884C617.224 404.849 614.712 393.31 626.068 378.837C628.343 375.938 630.831 372.71 633.923 370.646C640.736 366.098 648.617 369.957 650.851 359.253C651.568 355.817 651.418 352.217 651.532 348.724C651.744 342.256 653.53 336.822 656.024 330.873C657.332 327.752 658.995 324.458 661.778 322.399C666.749 318.721 673.883 323.258 679.483 321.448C687.6 318.825 693.34 310.478 701.27 306.923C704.809 308.905 707.48 310.501 711.655 309.222C714.128 308.464 716.579 307.014 718.889 305.847C723.144 306.626 727.271 307.576 731.436 308.743C729.221 313.397 726.163 318.956 728.022 324.249C730.699 331.867 740.501 332.759 746.207 336.891C748.963 338.887 751.431 342.014 754.51 343.448C755.78 344.039 757.622 344.487 758.939 343.83C759.816 343.392 760.83 342.434 761.126 341.474C762.3 337.658 757.45 331.732 760.007 328.745C765.682 327.724 785.364 339.088 788.122 334.701C791.508 329.313 785.523 311.292 783.728 304.915L777.249 306.604C775.809 304.882 774.586 303.38 772.669 302.155L771.99 302.277C772.299 303.982 773.072 306.133 772.365 307.718C770.874 307.869 769.411 306.994 768.317 306.027C761.744 300.22 760.723 279.291 752.673 277.309C751.481 277.632 750.805 277.75 750.092 278.89C748.106 282.062 750.807 289.593 752.113 292.887C753.322 295.936 754.85 298.766 756.472 301.609L750.336 306.14C748.042 300.646 745.841 295.116 742.826 289.967C736.724 279.545 721.366 260.83 710.029 256.133C709.143 255.766 708.355 255.622 707.409 255.518C706.763 255.818 706.314 255.795 706.092 256.545C705.31 259.19 708.012 264.585 709.466 266.754C709.881 267.373 710.341 267.941 710.81 268.519C715.569 269.187 721.659 269.461 724.814 273.611C727.778 277.51 733.36 287.18 732.615 292.124C732.482 293.008 732.281 293.041 731.709 293.655C730.076 293.841 728.769 293.448 727.472 292.459C724.421 290.134 723.843 283.471 722.161 280.063C718.481 279.332 715.335 278.633 712.101 276.605C708.354 274.256 697.008 261.118 693.192 263.476C691.387 264.592 690.782 266.959 690.433 268.923C689.867 272.101 689.938 275.421 689.92 278.637C687.274 279.702 684.56 280.697 681.959 281.863C680.094 286.078 679.295 290.031 678.775 294.592Q680.954 298.108 683.274 301.533C679.393 305.464 675.417 309.619 670.822 312.708C665.803 311.832 661.755 311.464 656.718 312.28C654.693 312.609 652.355 313.329 650.312 313.19C649.531 313.136 649.364 312.773 648.938 312.175C645.526 307.389 644.109 296.076 642.452 290.133C640.949 284.746 639.283 279.381 637.183 274.194C641.847 271.661 649.094 270.028 654.41 270.611C654.622 270.634 654.836 270.649 655.047 270.677C658.078 271.076 660.891 272.903 663.702 274.036C665.71 272.575 667.253 271.135 668.891 269.278C665.305 258.202 654.929 248.372 646.189 241.062C652.858 238.115 663.106 234.56 665.8 227.125C667.742 221.768 664.972 212.209 671.59 209.202C677.245 206.632 689.967 210.815 692.811 204.252C694.34 200.726 693.402 197.12 691.974 193.728C690.367 189.911 687.145 186.143 686.18 182.157C685.776 180.491 686.507 178.512 686.642 176.819C687.119 170.837 681.3 166.117 677.072 162.877C679.125 166.317 681.641 170.145 682.436 174.119L682.108 175.091C679.496 175.615 675.958 172.909 673.804 171.481C661.392 163.256 650.665 151.431 638.703 142.269C641.409 147.412 644.381 152.066 648.16 156.493C651.931 160.91 656.373 164.588 660.385 168.757C665.792 174.376 674.091 186.188 676.41 193.617C673.952 195.311 671.395 196.945 669.072 198.818C665.549 198.409 660.933 198.229 658.486 195.327C656.522 192.997 656.629 189.802 656.369 186.912C654.541 184.409 652.938 182.411 650.007 181.151C648.738 181.516 647.965 181.731 647.265 182.941C646.129 184.905 646.003 187.488 643.801 188.472C641.651 187.731 635.977 180.517 632.939 178.407C633.333 175.396 633.648 172.374 634.398 169.428C630.977 162.183 624.205 147.02 619.067 141.626C617.105 139.567 616.148 138.157 616.224 135.256C616.242 134.572 616.414 134.144 616.782 133.578C620.434 131.882 625.117 131.048 629.085 130.258C641.356 134.543 654.241 138.974 666.003 144.493C609.009 98.0836 530.761 78.9272 458.286 81.7212ZM596.481 435.647L596.492 488.088C602.401 489.978 614.891 493.299 617.976 499.051C618.557 500.135 618.796 501.517 618.258 502.672C616.373 506.718 609.115 508.629 605.11 509.709C592.509 513.105 579.396 514.301 566.475 515.888L530.418 520.565L486.994 526.021C479.319 526.981 471.423 528.369 463.704 528.749C499.26 541.694 552.36 572.821 578.927 599.894C588.143 609.286 595.613 620.127 602.948 630.999C611.604 631.509 620.232 632.285 628.878 632.938C651.657 634.787 674.321 637.789 697.1 639.65L721.443 605.453C726.676 598.09 733.719 590.098 736.998 581.695C739.412 575.511 739.987 567.446 738.91 560.917C737.914 554.882 735.286 548.987 735.829 542.788C737.004 529.368 747.048 521.221 738.046 506.324C736.073 503.058 733.787 499.944 730.65 497.694C728.406 496.085 725.905 494.999 723.105 495.465C712.979 497.147 709.336 509.767 700.084 512.225C693.717 513.917 684.752 503.219 680.106 510.56C677.829 514.157 677.724 519.765 673.131 521.344C670.107 522.383 664.461 521.471 661.719 519.834C656.607 516.781 656.663 509.444 653.814 504.671C650.577 502.966 646.56 501.513 643.655 499.348C636.951 494.349 636.807 484.578 630.443 479.654C626.274 476.429 620.454 476.176 615.902 473.532L615.389 473.239C609.121 463.439 612.243 447.085 613.019 435.992C607.628 435.962 601.809 436.315 596.481 435.647ZM458.694 350.416C452.807 358.729 445.742 366.281 439.527 374.374C429.28 387.717 419.606 401.866 408.494 414.485C408.607 438.726 409.429 463.206 408.751 487.426C423.97 486.833 439.207 486.593 454.417 485.79L507.498 483.489L507.498 403.917L477.357 369.867C471.416 363.251 465.557 356.079 458.694 350.416ZM456.804 321.74C444.4 336.712 433.618 352.883 422.112 368.536L403.676 393.801C399.925 398.84 395.756 403.791 392.32 409.039C391.315 410.574 390.583 412.037 390.045 413.793L390.358 414.708C392.052 414.848 393.981 413.605 395.256 412.582C402.751 406.569 412.129 391.648 418.184 383.353Q431.765 364.853 445.996 346.849C450.107 341.553 453.961 335.693 458.399 330.701Q481.218 354.855 504.381 378.68Q521.972 397.405 539.963 415.745C553.296 418.631 566.711 420.948 580.148 423.279C588.362 424.704 596.905 425.791 604.938 428.05C597.274 417.075 589.143 406.409 581.167 395.659C577.675 390.952 573.884 386.291 570.682 381.389C562.591 381.47 554.479 381.439 546.402 381.954C536.392 367.845 526.646 353.297 515.686 339.901C495.772 334.592 476.382 328.107 456.804 321.74ZM539.476 429.361L539.422 484.29C545.264 484.341 579.992 487.804 582.2 485.868L582.227 485.643Q583.323 461.577 584.051 437.497L557.763 432.304C551.774 431.14 545.572 429.685 539.476 429.361ZM544.741 323.528C539.841 324.991 534.95 326.537 530.008 327.854Q529.941 335.602 529.44 343.334Q534.419 351.326 539.572 359.208L545.594 367.678C545.631 361.119 546.784 327.003 545.194 323.616L544.741 323.528ZM750.622 246.68C747.969 253.426 749.262 258.793 752.073 265.223C753.237 267.888 754.459 270.583 756.026 273.036C760.24 274.393 764.299 275.436 768.701 275.955C770.286 271.87 768.912 267.882 767.242 264.023C764.797 258.376 759.887 249.89 753.995 247.425C752.956 246.991 751.734 246.804 750.622 246.68ZM339.611 130.187C336.388 130.529 332.642 130.751 329.946 132.714L329.86 133.551C331.289 134.839 333.657 135.179 335.51 135.562C338.894 135.608 341.47 135.546 344.167 133.212C344.618 132.821 344.948 132.375 345.303 131.9L345.272 130.812C343.38 129.552 341.781 129.914 339.611 130.187Z"/>
	<path fill="#EEBB59" d="M402.544 631.667C407.295 627.052 411.145 622.679 411.374 615.655C411.819 602.011 399.187 587.594 390.276 578.547C382.274 570.423 372.784 562.851 363.046 556.859C355.409 552.16 346.386 548.272 339.898 541.98C336.924 539.096 334.374 534.898 334.463 530.634C334.547 526.602 336.81 523.086 339.731 520.459C345.068 515.66 352.569 513.694 359.416 512.153C371.628 509.404 384.153 508.073 396.562 506.564C422.193 503.447 447.881 501.362 473.593 499.058L499.29 496.605C505.261 496.023 511.4 495.152 517.408 495.538C523.854 495.953 530.119 498.81 536.054 501.177C518.259 504.505 500.61 507.626 482.592 509.549C453.691 512.634 424.19 514.028 395.549 518.995C413.761 523.711 431.439 532.409 448.468 540.338C492.363 560.775 557.154 592.622 582.287 635.624C585.427 640.996 588.001 646.905 589.288 653.012L577.44 652.893C575.685 650.464 574.534 647.535 572.928 644.987C569.953 640.267 565.941 635.541 562.235 631.375C515.542 578.882 436.956 547.728 373.085 521.23Q368.28 522.14 363.51 523.22C359.169 524.227 350.409 526.091 347.926 530.088C347.978 532.64 350.842 534.231 352.755 535.637C358.313 539.725 364.939 542.444 370.83 546.048C389.223 557.298 407.862 573.06 417.743 592.449C424.758 606.215 424.654 616.996 420.005 631.477C414.302 631.965 408.193 632.856 402.544 631.667Z"/>
	<path fill="#394456" d="M470.646 394.57C472.134 394.503 473.773 394.361 475.25 394.579C478.039 394.992 480.843 396.957 482.345 399.311Q482.608 399.723 482.829 400.158Q483.05 400.594 483.227 401.05Q483.403 401.505 483.534 401.976Q483.664 402.447 483.747 402.928Q483.83 403.409 483.865 403.897Q483.9 404.384 483.887 404.872Q483.873 405.361 483.811 405.845Q483.749 406.33 483.639 406.806C482.813 410.477 480.582 412.483 477.531 414.414C475.904 414.647 474.32 414.857 472.68 414.589C469.98 414.148 467.491 412.733 465.94 410.444C464.416 408.196 463.94 405.326 464.464 402.679C465.242 398.745 467.463 396.737 470.646 394.57Z"/>
	<path fill="#394456" d="M444.478 394.643C445.974 394.432 447.667 394.275 449.163 394.534C451.97 395.02 454.613 396.788 456.082 399.232C457.508 401.605 457.847 404.478 457.192 407.149C456.287 410.843 454.107 413.024 450.942 414.919C449.524 415.068 447.993 415.211 446.583 414.948C443.836 414.436 441.331 412.685 439.862 410.316Q439.565 409.828 439.319 409.311Q439.074 408.795 438.882 408.257Q438.691 407.718 438.555 407.163Q438.42 406.607 438.342 406.041Q438.264 405.474 438.245 404.903Q438.225 404.332 438.264 403.761Q438.303 403.191 438.4 402.628Q438.498 402.064 438.652 401.514C439.586 398.123 441.572 396.409 444.478 394.643Z"/>
	<path fill="#394456" d="M470.99 422.517C472.457 422.481 473.994 422.485 475.433 422.802C478.4 423.455 481.204 425.505 482.725 428.133C484.149 430.594 484.517 433.507 483.614 436.215C482.45 439.708 479.788 441.697 476.583 443.208C475.232 443.37 473.815 443.427 472.47 443.165Q471.932 443.059 471.408 442.896Q470.884 442.734 470.38 442.517Q469.876 442.3 469.397 442.032Q468.919 441.763 468.471 441.446Q468.024 441.128 467.612 440.766Q467.201 440.403 466.829 439.999Q466.458 439.595 466.132 439.154Q465.805 438.713 465.527 438.24C464.012 435.665 463.663 432.426 464.493 429.567C465.541 425.961 467.788 424.191 470.99 422.517Z"/>
	<path fill="#394456" d="M445.273 422.606C447.185 422.5 449.081 422.469 450.909 423.132C453.714 424.15 456.127 426.315 457.313 429.064Q457.51 429.513 457.662 429.979Q457.814 430.446 457.918 430.925Q458.023 431.404 458.079 431.891Q458.135 432.378 458.143 432.869Q458.15 433.359 458.109 433.848Q458.067 434.337 457.977 434.819Q457.887 435.301 457.749 435.772Q457.612 436.242 457.428 436.697C456.023 440.164 453.3 441.827 449.986 443.188C448.333 443.358 446.687 443.342 445.088 442.824Q444.567 442.654 444.067 442.43Q443.567 442.205 443.093 441.929Q442.62 441.653 442.179 441.328Q441.737 441.002 441.333 440.632Q440.929 440.262 440.567 439.851Q440.204 439.439 439.888 438.992Q439.571 438.545 439.304 438.066Q439.037 437.587 438.822 437.083Q438.599 436.571 438.43 436.039Q438.26 435.507 438.146 434.96Q438.031 434.414 437.972 433.859Q437.913 433.303 437.911 432.745Q437.909 432.186 437.964 431.631Q438.018 431.075 438.129 430.528Q438.24 429.98 438.405 429.447Q438.571 428.914 438.79 428.4C440.101 425.393 442.332 423.828 445.273 422.606Z"/>
	<path fill="#4B5563" d="M555.229 95.3608C558.591 95.9962 562.019 96.8265 564.386 99.4681C565.584 100.806 566.732 102.828 566.385 104.705C566.17 105.862 565.356 106.979 564.263 107.458C561.482 108.676 558.501 107.259 555.869 106.299C551.416 104.661 545.623 103.138 542.014 100.026L542.566 98.939C545.536 98.3818 548.783 98.9814 551.777 99.2544C553.008 98.0417 554.101 96.6701 555.229 95.3608Z"/>
	<path fill="#4B5563" d="M390.741 109.595C391.421 110.333 392.145 111.5 392.338 112.504C392.598 113.859 392.237 115.09 391.428 116.183C387.037 122.119 374.08 125.387 367.039 126.278C366.214 125.25 365.882 124.972 365.685 123.692C369.022 119.447 385.05 112.335 390.741 109.595Z"/>
	<path fill="#4B5563" d="M614.682 209.051C617.727 210.649 620.688 213.095 623.513 215.076C624.552 218.412 625.844 221.598 627.187 224.821L621.125 226.842C620.64 227.07 620.67 227.075 620.058 227.249C618.381 227.726 616.78 227.682 615.25 226.808C611.63 224.74 610.537 219.812 609.57 216.088L614.682 209.051Z"/>
	<path fill="#4B5563" d="M560.337 151.572C564.156 151.293 567.608 153.517 570.901 155.184C570.619 156.776 570.415 158.638 569.689 160.088C567.344 164.775 560.718 166.145 556.138 167.729C552.5 168.033 548.166 163.459 545.431 161.23C545.519 161.115 545.61 161.002 545.696 160.885C545.84 160.692 545.979 160.494 546.122 160.3C547.823 157.986 548.896 155.541 550.04 152.929C553.747 152.994 556.814 152.843 560.337 151.572Z"/>
	<path fill="#4B5563" d="M258.167 405.113C264.344 404.507 269.199 405.88 274.711 408.58C280.613 411.471 293.071 418.184 295.021 425.061C295.272 425.946 295.263 427.071 294.748 427.858C293.493 429.774 291.575 430.483 289.411 430.799C272.6 430.164 280.446 421.613 270.909 416.731C265.154 413.786 256.632 415.632 251.943 411.571C251.29 410.134 251.315 409.93 251.536 408.356C253.035 406.036 255.668 405.712 258.167 405.113Z"/>
	<path fill="#4B5563" d="M614.227 186.751C616.31 187.582 618.399 188.608 620.15 190.025C624.118 193.238 626.681 198.01 630.521 201.391C633.645 204.141 637.544 206.285 640.964 208.675C644.725 211.303 648.107 214.284 651.508 217.351L653.883 226.018C651.822 226.947 649.703 227.762 647.611 228.618C645.457 229.385 642.393 230.468 640.102 230.22C638.6 230.058 637.187 229.454 636.393 228.09C634.811 225.375 636.157 222.15 636.99 219.425C628.253 210.662 616.694 202.89 611.264 191.506L614.227 186.751Z"/>
	<path fill="#4B5563" d="M307.56 430.771C312.396 430.495 317.248 430.561 322.091 430.557C325.72 433.124 328.336 436.826 331.836 439.569C339.477 445.557 344.388 442.312 349.112 452.953C341.635 452.256 334.032 450.203 326.516 450.54C320.725 450.799 316.27 453.681 310.21 453.125C304.299 451.792 299.049 448.666 293.201 447.394C288.553 446.383 279.328 447.813 275.716 444.732C274.596 443.777 274.602 443.466 274.503 442.1C279.699 433.302 299.63 447.237 307.067 444.157C310.309 440.131 306.576 435.543 306.662 431.141L307.56 430.771Z"/>
	<path fill="#4B5563" d="M442.035 91.703L442.594 91.6599C444.476 91.5274 446.865 91.2204 448.354 92.5032C446.195 96.6021 434.248 97.8978 430.431 100.983C421.618 108.106 412.409 113.598 402.846 119.598C406.696 121.209 419.024 122.942 420.908 125.656C422.951 128.599 420.602 132.483 420.293 135.63C420.167 136.915 420.355 138.042 421.33 138.981C424.106 141.656 430.024 141.554 433.604 141.522C433.503 144.529 433.334 149.823 431.24 152.169C429.65 153.951 426.404 150.819 424.377 150.817C423.216 150.816 422.54 151.285 421.768 152.139C418.22 156.066 420.586 161 420.633 165.477C420.641 166.258 420.369 167.061 419.751 167.553C416.771 169.927 409.591 168.481 406.091 168.009C402.031 167.096 399.631 167.716 395.82 169.022C393.613 165.854 387.987 159.232 388.571 155.232C389.056 151.909 396.423 149.301 399.11 147.529C400.932 146.327 402.605 144.764 404.253 143.334C401.411 138.669 398.555 134.032 394.797 130.039C392.102 129.419 389.727 128.675 387.192 127.559C396.122 120.455 400.81 115.073 403.018 103.531C406.88 103.645 414.871 104.687 417.922 102.314C418.574 101.806 418.359 101.411 418.381 100.664C417.386 99.0157 415.819 97.16 416.078 95.162C416.789 93.8933 417.774 93.1967 419.117 92.675C422.142 91.5001 426.203 93.6743 428.986 94.7765C433.252 93.1826 437.526 92.2652 442.035 91.703Z"/>
	<path fill="#EEBB59" d="M541.624 228.851C543.029 235.378 526.783 275.282 530.455 282.486C535.339 285.869 568.113 270.798 574.985 267.9C577.11 267.004 580.841 264.697 582.966 264.764C579.759 268.718 557.88 279.34 552.126 283.045C546.041 286.963 541.101 291.433 536.142 296.659C553.682 305.821 573.428 310.097 590.99 319.496C570.609 314.301 550.79 307.013 530.26 302.538C526.086 306.404 527.238 309.954 526.165 314.922C525.722 316.974 524.283 317.7 522.642 318.744C522.126 315.197 522.3 311.477 521.613 307.97C521.361 306.684 521.267 305.92 520.151 305.144C515.466 307.683 512.865 320.937 508.476 325.324C507.662 326.138 507.42 326.093 506.333 326.132C505.669 325.604 505.256 325.512 505.066 324.629C504.108 320.178 512.084 310.129 514.629 306.066C514.876 305.524 515.259 304.821 515.402 304.228C515.732 302.861 515.591 302.587 515.003 301.384C508.096 298.792 487.199 315.921 480.125 318.971C479.97 319.038 479.811 319.1 479.654 319.164C477.714 318.478 475.815 317.665 473.908 316.892C486.184 310.353 499.399 304.501 510.726 296.413C494.659 287.682 476.371 283.036 459.184 277.064C474.998 279.119 490.58 284.327 506.43 285.945C509.252 286.233 512.836 286.568 515.152 284.668C516.777 277.506 494.048 245.698 490.313 235.153C490.24 234.948 490.172 234.74 490.102 234.533C500.309 249.674 511.412 264.462 522.52 278.965C530.304 267.828 536.235 242.808 541.624 228.851Z"/>
	<path fill="#4B5563" d="M487.653 92.4369C496.107 93.197 502.805 103.808 510.581 107.315C512.588 108.22 514.878 108.611 517.025 109.059C520.881 120.425 530.747 127.618 534.53 139.008C526.925 144.54 520.399 146.897 511.113 148.342C507.415 152.955 504.939 158.391 502.322 163.656L500.135 164.216C498.371 164.664 496.579 164.977 495.208 166.273C490.684 170.546 498.855 177.12 498.068 182.338C497.687 184.862 495.695 186.093 493.851 187.576C491.925 185.539 490.044 183.552 487.877 181.765C483.881 181.617 477.83 182.216 474.384 180.049C468.197 176.161 460.943 159.055 459.142 151.868C460.697 147.029 463.704 142.992 465.741 138.366C465.042 136.715 464.113 135.147 463.254 133.573Q462.579 133.531 461.904 133.48C459.678 133.31 457.045 133.209 455.641 131.15C453.731 128.35 454.719 124.065 455.048 120.903C453.262 117.968 451.277 115.122 449.389 112.249C447.249 113.648 445.378 114.945 442.765 115.114C441.92 114.79 441.343 114.755 440.799 113.977C438.711 110.988 440.142 105.576 440.705 102.208C454.865 95.6796 471.3 100.822 481.357 96.4831C483.492 95.5619 485.626 93.6726 487.653 92.4369Z"/>
</svg>
