<?xml version="1.0" encoding="utf-8" ?>
<svg xmlns="http://www.w3.org/2000/svg" xmlns:xlink="http://www.w3.org/1999/xlink" width="1038" height="1038">
	<path fill="#7E0E0E" transform="scale(1.01355 1.01355)" d="M492.003 698.705C498.513 697.744 504.828 698.971 511.259 699.924C511.508 705.781 510.592 711.803 510.457 717.685C509.664 714.234 508.86 710.382 506.94 707.374C504.51 703.567 500.993 702.415 496.849 701.438C495.511 701.722 494.201 702.073 492.934 702.598C490.754 703.499 488.605 705.151 487.761 707.426C482.959 720.369 506.308 730.161 511.157 741.342C513.378 746.466 512.955 752.548 510.68 757.589C508.06 763.397 503.247 766.22 497.533 768.313Q496.353 768.502 495.165 768.63C490.59 769.145 484.145 769.408 480.46 766.249C478.519 764.584 477.809 762.169 477.714 759.682C477.642 757.81 477.88 752.296 479 751.042C482.589 754.893 482.716 761.122 487.754 764.097C490.089 765.477 492.91 765.481 495.463 764.752C498.341 763.93 502.463 761.609 503.701 758.714C508.74 746.93 484.263 735.263 479.778 724.376C477.712 719.359 478.068 714.001 480.218 709.074C482.619 703.573 486.676 700.911 492.003 698.705Z"/>
	<path fill="#7E0E0E" transform="scale(1.01355 1.01355)" d="M311.843 698.109C322.626 700.08 354.759 700.013 365.65 697.823C365.972 701.86 365.562 705.951 365.305 709.985C363.942 707.827 362.534 705.91 360.898 703.956C355.16 702.689 349.389 702.938 343.554 703.024C343.389 714.765 343.672 726.536 343.676 738.281C343.679 746.244 343.268 754.27 343.715 762.218C344.078 762.86 344.425 763.513 344.846 764.12C346.623 766.683 350.856 766.766 353.689 767.192C343.648 768.211 333.562 767.958 323.483 768.051C325.583 767.503 329.902 766.859 331.194 764.983C334.135 760.712 332.539 712.067 332.468 702.935C328.041 702.783 322.968 702.179 318.637 703.148C313.779 704.235 311.721 707.216 309.24 711.156Q310.401 704.604 311.843 698.109Z"/>
	<path fill="#7E0E0E" transform="scale(1.01355 1.01355)" d="M647.145 699.57C664.018 700.15 684.22 701.739 700.884 699.517Q700.82 706.19 700.674 712.861C699.795 711.501 698.878 710.145 697.807 708.926C695.404 706.19 692.073 704.892 688.491 704.682C686.337 704.557 681.881 704.72 680.391 706.634C677.451 710.412 679.22 753.796 679.546 762.124C679.593 762.686 679.751 763.714 680.018 764.254C681.353 766.949 685.328 767.635 687.96 768.427C679.861 768.195 671.764 768.591 663.658 768.264L663.371 767.809C663.88 767.463 664.382 767.102 664.895 766.761C665.792 766.165 666.494 765.761 667.056 764.786C668.975 761.463 668.73 713.076 667.607 708.111C667.271 706.624 666.876 706.023 665.507 705.286C662.476 703.654 656.712 704.152 653.595 705.24C649.396 706.705 647.452 711.092 645.594 714.763C646.223 709.72 646.636 704.628 647.145 699.57Z"/>
	<path fill="#7E0E0E" transform="scale(1.01355 1.01355)" d="M623.607 699.246C628.633 703.644 641.572 746.592 645.713 756.27C648.785 763.448 651.023 765.565 658.197 768.469C649.826 768.538 641.384 768.679 633.032 768.066L637.174 765.148C635.658 758.998 633.399 753.044 631.257 747.091L626.655 747.228C621.672 747.337 616.734 747.407 611.752 747.162Q608.782 756.014 606.25 765.002C608.637 766.23 611.196 767.02 613.733 767.871C607.111 768.263 600.527 768.454 593.903 768.011C595.825 767.347 597.599 766.435 599.415 765.531C604.267 756.998 607.597 743.799 610.666 734.149C614.452 722.246 618.5 710.646 623.607 699.246ZM621.697 717.354C618.857 725.726 616.266 734.299 613.019 742.516L622.625 742.503L629.92 742.327C627.09 734.155 625.291 725.191 621.697 717.354Z"/>
	<path fill="#7E0E0E" transform="scale(1.01355 1.01355)" d="M555.501 683.749C562.128 683.632 568.776 683.527 575.397 683.917C582.69 684.347 590.586 685.222 595.612 691.199C599.76 696.132 600.62 702.961 599.904 709.177C599.123 715.949 596.238 722.687 590.679 726.884C584.295 731.702 577.311 731.547 569.813 730.537C574.12 728.712 579.291 728.073 582.827 724.803C587.193 720.765 589.043 715.054 589.354 709.24C589.653 703.643 588.307 697.51 584.313 693.376C580.041 688.954 574.882 688.613 569.127 688.66Q569.298 697.791 569.252 706.923C569.063 715.451 567.747 757.486 570.854 762.948C572.887 766.523 578.977 767.002 582.548 767.705C570.609 769.207 558.209 768.541 546.219 768.033C548.013 767.51 549.951 767.021 551.675 766.289C553.472 765.525 555.06 764.472 555.78 762.576C558.255 756.053 557.822 691.807 555.622 688.551C554.124 686.331 548.167 685.439 545.597 684.724C548.891 684.047 552.151 683.908 555.501 683.749Z"/>
	<path fill="#7E0E0E" transform="scale(1.01355 1.01355)" d="M706.037 700.197C713.923 699.987 721.831 700.063 729.721 700.03C729.551 700.132 729.385 700.24 729.212 700.337C728.085 700.967 726.681 701.49 725.875 702.548C721.634 708.114 723.584 722.992 723.759 729.584Q738.251 729.442 752.742 729.599C752.714 722.94 753.858 716.035 753.002 709.41C752.454 705.168 751.371 702.829 748.06 700.183C755.929 699.864 763.871 700.053 771.75 700.031C769.543 700.803 767.429 701.789 765.295 702.741C761.972 716.677 762.414 751.553 764.969 765.357C766.429 766.128 768.095 766.84 769.292 767.98C768.093 768.65 766.791 768.457 765.463 768.424C759.36 767.871 753.219 767.921 747.095 767.857C748.311 767.259 750.02 766.606 750.986 765.647C754.731 761.93 753.02 740.018 752.907 734.002L723.586 734C723.492 744.382 722.836 755.047 724.79 765.287C726.588 766.441 728.583 767.296 730.51 768.215C722.953 768.366 715.429 768.181 707.876 767.95C709.164 767.164 710.493 766.421 711.28 765.08C713.984 760.474 713.078 710.628 711.514 702.704C709.661 701.917 707.848 701.075 706.037 700.197Z"/>
	<path fill="#7E0E0E" transform="scale(1.01355 1.01355)" d="M441.319 696.676C447.813 699.362 461.145 753.913 468.77 764.476C471.588 765.784 474.576 766.831 477.473 767.96C468.952 767.21 459.811 767.158 451.282 767.786L456.201 764.965Q452.868 755.271 449.711 745.519L430.354 745.5C428.69 750.686 424.097 758.139 425.022 763.591C425.389 765.753 427.117 766.589 428.8 767.695Q412.129 768.376 395.45 767.954C387.075 767.79 378.403 767.076 370.08 767.883C370.723 767.624 371.361 767.353 372.005 767.099C373.528 766.498 374.844 766.006 376.025 764.818C380.539 760.276 378.953 751.552 378.721 745.74C378.53 732.204 381.055 713.719 376.983 701.085Q373.219 700.13 369.443 699.226C378.857 698.598 388.176 698.868 397.6 699.101C394.731 699.701 391.864 699.959 389.797 702.227C387.109 709.332 388.009 751.635 389.818 760.009C390.171 761.646 390.911 763.153 392.401 764.052C394.457 765.292 397.115 764.994 399.334 764.427C407.164 762.423 409.098 759.072 412.927 752.739C415.04 757.13 409.921 761.783 412.161 766.133C412.809 766.33 413.327 766.481 414.01 766.294C416.046 765.738 418.637 763.913 419.73 762.098C422.647 757.258 423.89 750.189 425.554 744.751C428.63 734.695 431.884 724.687 435.097 714.674C436.947 708.91 438.481 702.799 441.02 697.309L441.319 696.676ZM439.356 716.825C436.173 725.146 434.177 733.79 431.394 742.23L440.741 742.166L448.522 742.141C446.516 736.853 442.695 720.007 439.356 716.825Z"/>
	<path fill="#D98E0B" transform="scale(1.01355 1.01355)" d="M283.539 680.755C287.481 684.316 289.521 692.941 291.202 697.982C299.949 724.216 311.199 771.26 335.438 786.772C344.816 792.774 354.541 793.602 365.226 791.232C357.353 795.607 349.68 798.187 340.559 797.428C327.42 796.334 317.9 788.947 309.722 779.158C301.802 767.494 296.881 752.974 292.667 739.583Q282.4 739.469 272.139 739.098C269.31 747.68 266.37 756.297 265.15 765.281C267.762 765.701 270.33 766.327 272.908 766.92C262.781 768.342 252.423 767.637 242.224 767.526C245.989 766.502 249.805 765.729 253.623 764.934C258.844 756.781 261.335 747.138 264.157 737.969Q269.325 721.117 274.825 704.369C277.414 696.412 279.676 688.203 283.539 680.755ZM281.611 705.32C278.657 715.073 275.536 724.863 273.418 734.837C276.787 734.697 280.136 734.701 283.507 734.747L291.153 734.584C288.84 725.972 286.523 712.403 281.611 705.32Z"/>
	<path fill="#7E0E0E" transform="scale(1.01355 1.01355)" d="M205.158 646.467C157.043 595.227 127.267 520.441 120.505 451.009Q120.062 446.682 119.725 442.345Q119.389 438.008 119.159 433.664Q118.929 429.321 118.807 424.972Q118.684 420.624 118.668 416.275Q118.653 411.925 118.744 407.576Q118.836 403.227 119.034 398.882Q119.233 394.536 119.539 390.197Q119.844 385.858 120.256 381.528Q120.669 377.198 121.187 372.879Q121.706 368.56 122.331 364.255Q122.956 359.951 123.687 355.663Q124.418 351.375 125.254 347.106Q126.09 342.837 127.031 338.59Q127.972 334.343 129.017 330.121Q130.062 325.899 131.211 321.703Q132.36 317.508 133.612 313.342Q134.864 309.176 136.218 305.042Q137.572 300.909 139.027 296.81Q140.483 292.71 142.038 288.648Q143.594 284.586 145.25 280.564Q146.905 276.541 148.659 272.561Q150.413 268.58 152.265 264.644Q154.116 260.708 156.064 256.818Q158.012 252.929 160.055 249.089Q162.098 245.249 164.235 241.46Q166.371 237.671 168.601 233.936Q170.831 230.201 173.151 226.522Q175.472 222.843 177.883 219.222Q180.294 215.602 182.793 212.041Q185.292 208.481 187.878 204.984Q190.464 201.486 193.136 198.053Q195.807 194.62 198.562 191.254Q201.283 188.007 204.081 184.827Q206.88 181.647 209.755 178.536Q212.63 175.425 215.58 172.385Q218.53 169.345 221.553 166.378Q224.576 163.41 227.671 160.517Q230.765 157.624 233.929 154.807Q237.093 151.99 240.324 149.251Q243.555 146.512 246.852 143.852Q250.149 141.193 253.51 138.614Q256.871 136.035 260.293 133.539Q263.715 131.042 267.197 128.63Q270.68 126.218 274.219 123.891Q277.759 121.564 281.354 119.324Q284.95 117.084 288.598 114.931Q292.247 112.779 295.947 110.717Q299.647 108.654 303.396 106.682Q307.145 104.71 310.941 102.829Q314.737 100.949 318.577 99.1615Q322.418 97.374 326.3 95.6804Q330.183 93.9868 334.106 92.3882Q338.029 90.7895 341.99 89.2868Q345.95 87.784 349.946 86.378Q353.942 84.9719 357.971 83.6635Q362 82.3551 366.059 81.145Q370.119 79.935 374.207 78.824Q378.295 77.713 382.408 76.7018Q386.522 75.6905 390.659 74.7796Q394.796 73.8687 398.954 73.0587Q403.112 72.2486 407.288 71.54Q411.464 70.8313 415.657 70.2244Q419.849 69.6175 424.055 69.1127Q428.261 68.6079 432.478 68.2056C528.492 58.9661 616.125 85.6279 690.524 147.132Q693.781 149.854 696.97 152.653Q700.16 155.453 703.281 158.328Q706.402 161.204 709.453 164.155Q712.504 167.105 715.482 170.128Q718.461 173.152 721.365 176.246Q724.27 179.341 727.099 182.505Q729.928 185.668 732.679 188.9Q735.431 192.131 738.103 195.428Q740.776 198.725 743.368 202.085Q745.96 205.446 748.47 208.868Q750.98 212.29 753.406 215.772Q755.833 219.254 758.175 222.794Q760.516 226.333 762.772 229.929Q765.027 233.524 767.195 237.172Q769.363 240.821 771.442 244.521Q773.52 248.221 775.509 251.97Q777.498 255.72 779.396 259.516Q781.293 263.312 783.099 267.153Q784.904 270.994 786.616 274.877Q788.328 278.761 789.945 282.685Q791.562 286.608 793.085 290.57Q794.607 294.532 796.033 298.529Q797.458 302.527 798.787 306.557Q800.116 310.588 801.347 314.65Q802.578 318.711 803.71 322.801Q804.843 326.892 805.876 331.008Q806.909 335.124 807.842 339.265Q808.775 343.405 809.608 347.566Q810.441 351.728 811.173 355.908Q811.905 360.089 812.536 364.286Q813.167 368.483 813.696 372.694Q814.225 376.905 814.652 381.127Q815.011 384.738 815.295 388.357Q815.579 391.975 815.787 395.598Q815.995 399.221 816.128 402.848Q816.26 406.475 816.317 410.104Q816.374 413.732 816.355 417.362Q816.336 420.991 816.241 424.619Q816.146 428.247 815.976 431.872Q815.805 435.497 815.559 439.118Q815.313 442.739 814.991 446.354Q814.67 449.969 814.273 453.576Q813.876 457.184 813.404 460.782Q812.931 464.381 812.384 467.968Q811.837 471.556 811.215 475.132Q810.593 478.707 809.896 482.269Q809.2 485.831 808.429 489.377Q807.658 492.924 806.814 496.453Q805.969 499.983 805.051 503.494Q804.133 507.005 803.142 510.496Q802.151 513.988 801.087 517.457Q800.023 520.927 798.887 524.374Q797.751 527.821 796.544 531.243Q795.336 534.666 794.057 538.062Q792.778 541.459 791.429 544.828Q790.079 548.197 788.659 551.537Q787.24 554.877 785.751 558.186Q784.262 561.496 782.704 564.774Q781.147 568.052 779.521 571.297Q777.895 574.542 776.202 577.752Q774.509 580.962 772.749 584.136Q770.989 587.31 769.163 590.446Q767.338 593.583 765.447 596.681Q763.556 599.778 761.601 602.836C752.828 616.478 742.673 629.567 732.328 642.058C786.297 655.712 839.442 669.68 891.172 690.673C904.299 696 918.918 701.414 930.844 709.112C899.493 699.812 866.978 692.856 834.949 686.372Q802.834 679.778 770.475 674.512Q738.116 669.246 705.568 665.317Q673.02 661.388 640.337 658.803Q607.654 656.218 574.893 654.981Q533.803 654.143 492.706 654.605C480.705 654.784 468.764 655.521 456.744 655.546Q426.65 656.504 396.577 657.986C386.647 658.753 353.91 661.649 345.795 660.097C340.977 660.365 336.051 661.293 331.245 661.859Q313.529 663.872 295.889 666.465C229.142 675.805 159.223 690.03 94.6794 709.529Q109.413 701.891 124.5 694.976Q139.588 688.06 154.992 681.885Q170.396 675.709 186.082 670.288Q201.768 664.866 217.698 660.211C246.809 651.736 276.629 645.173 306.126 638.191C301.132 630.313 295.135 623.12 288.891 616.21C284.299 611.128 275.988 604.043 273.067 597.982C271.664 595.072 274.891 587.472 275.789 584.346C274.629 581.015 271.159 577.822 270.833 574.44C270.554 571.55 272.97 569.042 274.579 566.912L275.228 558.128C278.398 554.867 282.304 551.571 284.827 547.788C287.704 543.472 287.329 538.604 286.422 533.717C285.146 526.841 281.602 513.115 275.259 509.199C271.846 507.093 268.436 512.4 264.956 513.129C260.565 514.049 256.441 510.726 253.197 508.221C241.473 499.164 237.094 493.759 232.95 479.666C231.819 475.817 230.851 471.83 228.639 468.424C224.553 462.13 216.009 462.554 211.187 457.321C207.365 453.173 206.76 445.027 202.205 442.201C198.636 439.986 193.598 441.654 189.857 442.636Q188.532 441.717 187.227 440.77C183.527 438.082 179.934 435.236 176.791 431.903C172.032 426.857 161.006 411.456 158.315 405.078C157.298 402.669 156.952 400.045 156.542 397.48Q158.802 394.54 160.929 391.503C161.263 378.004 159.917 364.421 160.414 350.969C160.635 345 162.138 339.088 162.481 333.124C162.625 330.619 162.774 326.392 160.783 324.503C160.162 323.913 159.673 324.086 158.873 324.048C156.742 325.799 156.077 329.386 155.425 331.98C150.772 350.464 153.254 362.355 151.209 379.992C134.081 352.631 161.435 319.068 157.932 288.734C144.03 320.246 136.483 353.979 133.833 388.255Q133.567 391.681 133.374 395.111Q133.18 398.542 133.058 401.976Q132.937 405.41 132.887 408.846Q132.838 412.281 132.86 415.717Q132.883 419.153 132.978 422.588Q133.072 426.023 133.239 429.455Q133.406 432.887 133.645 436.315Q133.884 439.743 134.194 443.165Q134.505 446.587 134.888 450.001Q135.27 453.416 135.724 456.822Q136.178 460.228 136.704 463.624Q137.229 467.019 137.826 470.403Q138.423 473.787 139.09 477.158Q139.758 480.528 140.496 483.884Q141.234 487.24 142.042 490.58Q142.851 493.919 143.729 497.241Q144.607 500.563 145.555 503.866Q146.503 507.169 147.52 510.451Q148.537 513.733 149.623 516.993Q150.709 520.253 151.862 523.49Q153.016 526.726 154.238 529.938Q155.459 533.15 156.748 536.335Q158.037 539.52 159.392 542.678Q160.747 545.835 162.169 548.964Q163.59 552.092 165.076 555.19Q166.563 558.288 168.114 561.354Q169.666 564.42 171.281 567.452Q172.896 570.485 174.575 573.483Q176.254 576.481 177.995 579.444Q179.736 582.406 181.539 585.331Q183.342 588.256 185.206 591.143Q187.07 594.029 188.994 596.876C199.614 612.554 211.924 626.64 224.222 640.992C217.979 643.049 211.46 644.519 205.158 646.467ZM309.002 188.31C313.922 198.082 326.832 207.144 329.096 213.8C329.577 215.214 329.17 217.083 328.714 218.455C327.491 222.133 323.333 227.367 324.203 231.144C325.334 232.252 326.113 232.556 327.719 232.479C331.081 232.319 336.646 230.658 338.947 228.069C343.552 222.886 340.97 214.238 344.851 208.637C348.924 202.757 357.456 204.014 362.057 197.026C361.584 191.213 359.59 180.835 363.675 176.209C367.197 172.223 373.648 170.949 378.774 170.825C382.844 170.727 387.327 171.36 390.316 174.374C394.109 178.2 394.97 184.272 394.812 189.436C394.715 192.602 393.674 197.68 395.64 200.229C396.809 200.617 397.346 200.659 398.502 200.146C403.332 198.007 408.663 189.995 414.678 192.538C421.724 195.517 418.564 211.761 431.637 218.37C431.529 224.676 427.038 234.129 431.845 239.19C436.834 244.441 444.639 243.918 444.854 253.433C444.908 255.85 444.289 258.427 442.6 260.237C441.264 261.669 439.225 262.358 437.299 262.373C431.133 262.422 418.325 257.199 414.086 252.666C412.779 251.268 411.955 249.535 412.078 247.593C412.456 241.66 421.611 235.467 420.988 231.231C419.711 230.254 418.942 230.001 417.321 230.202C412.264 230.829 407.897 234.009 402.938 234.779C386.573 237.32 380.952 228.277 367.083 245.826C371.544 245.959 381.323 244.937 384.784 247.301C387.47 251.384 381.581 259.842 387.488 261.479C390.777 262.39 395.905 260.227 398.355 263.271C399.425 264.601 399.871 266.614 399.5 268.274C398.918 270.882 396.642 272.778 394.456 274.088C388.424 277.705 377.414 282.102 370.326 281.487C369.276 279.92 369.855 277.645 370.197 275.914C370.983 271.922 372.098 268.159 372.335 264.074C365.013 265.269 347.696 273.99 343.529 279.788C342.54 281.164 342.212 282.515 342.592 284.199C343.285 287.275 348.628 290.898 347.111 294.159C346.345 295.804 344.792 296.947 343.035 297.322C339.14 298.154 335.124 296.272 331.238 296.474C326.205 296.736 311.995 303.129 309.027 307.124C305.171 312.316 309.49 319.064 306.362 324.449C304.939 326.9 302.631 328.794 300.309 330.351C294.34 334.355 287.148 336.283 281.003 339.972C275.08 343.526 268.841 352.022 262.226 353.351C255.215 354.76 243.856 341.16 238.77 348.204C236.934 350.746 237.606 354.828 234.064 355.736C225.66 353.767 218.073 340.861 208.727 346.941C198.754 353.429 191.443 372.521 189.363 383.804C187.532 393.731 186.932 406.633 192.811 415.388C195.847 419.91 201.06 423.687 206.51 424.565C208.537 424.891 210.277 424.581 211.894 423.279C216.97 419.195 218.362 406.903 226.426 407.467C228.71 407.627 230.533 409.06 231.885 410.814C234.435 414.119 235.972 419.074 235.29 423.236C233.65 433.237 223.306 438.195 225.685 449.67C226.637 450.864 227.219 451.371 228.779 451.535C235.05 452.194 247.29 446.717 252.037 452.484C254.3 455.233 255.286 464.417 254.533 467.833C253.876 470.814 252.185 473.465 251.092 476.289C248.997 481.705 251.291 488.878 254.21 493.641C255.28 495.387 256.977 497.594 259.082 498.122C260.679 498.523 261.501 498.233 262.828 497.367C263.997 496.604 265.135 495.774 266.27 494.96C274.983 498.286 281.753 502.969 291.178 504.639C298.699 500.19 303.817 492.338 311.867 488.833C327.887 494.74 329.128 490.384 343.576 489.904C344.249 492.413 344.75 495.582 347.116 497.082C355.726 502.543 387.492 497.212 398.132 495.861Q398.356 472.916 398.26 449.97C398.235 441.652 397.203 432.373 398.742 424.202C399.379 420.825 402.118 415.727 404.439 413.13C404.51 413.05 404.605 412.995 404.688 412.927C405.054 412.07 405.344 411.324 405.502 410.404C404.083 407.995 404.28 405.23 404.499 402.566C400.115 408.589 395.848 414.787 391.055 420.489L369.969 420.306C373.133 414.677 377.441 409.481 381.291 404.292L400.222 378.772Q426.16 343.177 451.167 306.922Q470.299 315.455 489.755 323.218C489.735 319.272 490.521 308.601 489.218 305.566L486.829 305.238C487.535 305.166 488.221 304.997 488.915 304.853C490.288 302.52 489.59 298.616 489.448 295.986L489.582 295.656C495.333 294.78 500.938 292.544 506.382 290.549C515.84 293.83 525.358 297.011 534.723 300.551L530.5 303.014C530.434 312.366 529.724 321.595 530.647 330.93C530.614 332.819 530.427 334.824 530.704 336.691C534.982 338.623 537.37 339.85 540.03 343.874C540.243 344.055 540.45 344.243 540.668 344.418C545.811 348.568 553.251 349.075 558.405 353.734C563.76 358.575 568.239 365.765 572.738 371.46L598.198 403.755C604.416 411.715 610.475 420.019 617.425 427.362L616.07 432.787C610.242 432.703 604.412 432.556 598.586 432.779L598.478 484.928C602.313 488.64 611.392 494.488 611.662 500.158C611.729 501.581 611.266 502.726 610.338 503.797C604.984 509.969 585.95 509.559 578.237 509.524C558.288 509.435 538.251 512.157 518.397 514.028C499.426 515.815 479.959 516.691 461.302 520.692C456.961 521.623 450.417 523.145 447.066 526.204C446.554 526.672 446.305 527.17 446.069 527.808C446.589 529.122 447.284 529.395 448.533 529.939C451.449 531.208 454.805 532.003 457.833 533.036Q468.706 536.73 479.514 540.612C523.693 556.563 573.312 577.153 594.077 622.664Q594.957 624.592 595.814 626.53Q622.429 628.172 648.916 631.249Q675.403 634.325 701.686 638.827C708.125 630.221 714.925 621.742 720.593 612.601C724.333 606.568 727.393 600.105 730.774 593.869C733.478 588.883 736.934 583.967 738.265 578.389C739.193 574.503 738.846 570.192 738.287 566.266C737.171 558.436 734.727 550.942 731.985 543.551C737.475 535.357 746.884 527.013 744.879 515.999C744.604 514.492 743.906 512.928 742.507 512.153C740.069 510.802 737.505 511.7 735.112 512.662Q733.748 513.224 732.421 513.869C729.796 509.354 727.802 505.102 722.335 503.721C720.817 503.338 719.23 503.108 717.686 502.847C711.246 506.395 707.82 511.656 703.967 517.699Q694.583 515.602 685.11 513.95C681.756 519.2 677.457 522.167 671.329 523.503C666.829 524.485 660.677 525.037 656.755 522.239C653.214 519.712 652.983 515.191 652.291 511.24C647.319 507.248 641.639 504.267 637.609 499.211C633.202 493.681 631.041 482.905 625.902 479.137C621.49 475.901 613.326 477.785 612.46 470.808C611.151 460.259 619.74 444.136 624.818 435.319C621.23 419.493 622.545 403.693 624.109 387.719C634.417 381.14 645.122 375.927 654.752 368.24C651.56 347.176 649.089 342.945 662.354 324.947C663.026 324.035 663.694 323.12 664.41 322.242C670.248 322.076 676.839 322.428 682.422 320.554C696.022 315.991 702.91 304.375 717.002 317.814C726.92 327.272 734.173 339.136 747.454 344.579C749.316 345.342 751.48 346.254 753.517 346.184C754.709 346.144 755.075 345.823 756.031 345.175C757.954 341.471 754.977 336.19 758.237 333.469C764.717 332.422 773.768 341.519 779.223 344.684C781.865 335.031 783.843 320.845 778.399 311.77C777.524 310.311 776.555 309.15 775.17 308.17C773.693 308.755 771.906 313.209 770.984 314.774C765.449 306.97 752.93 290.619 754.397 280.773C754.621 279.27 755.361 277.563 756.68 276.708C760.206 274.423 764.595 275.668 765.957 270.812C767.007 267.068 765.314 263.139 763.345 260.021C758.797 252.817 752.578 248.937 744.747 245.981C748.582 253.149 754.2 262.822 751.549 271.191C750.42 274.757 748.088 277.002 745.388 279.463C746.597 284.7 753.287 296.84 750.841 300.797C749.87 301.128 749.666 301.209 748.671 300.754C741.976 297.689 729.378 274.274 723.779 267.363C721.411 264.441 718.26 261.939 715.393 259.524C712.547 257.127 708.798 254.264 704.784 255.65C704.276 255.825 703.991 256.097 703.594 256.414C703.309 257.724 703.378 258.251 704.126 259.403C706.02 262.321 709.217 264.733 711.81 266.999C718.878 273.173 726.93 280.198 730.24 289.283C730.772 290.743 731.553 292.748 731.472 294.317C731.445 294.84 731.289 295.081 731.083 295.511C729.877 295.888 729.324 295.801 728.211 295.137C723.582 292.375 718.596 285.433 714.648 281.358Q707.563 274.083 700.06 267.239C695.381 268.127 688.802 268.621 685.933 272.962C683.124 277.212 685.164 284.707 685.072 289.606C685.009 292.955 684.489 296.315 684.056 299.631C674.417 304.552 665.023 315.162 653.567 311.28C650.823 310.351 648.02 308.83 645.574 307.278C641.809 295.713 638.47 282.513 637.281 270.407C643.601 270.749 665.55 273.717 669.648 269.436C670.687 268.351 670.472 267.152 670.505 265.786C668.89 262.122 663.814 261.309 661.19 258.411C657.138 253.935 654.746 248.08 652.203 242.675C655.548 238.443 658.68 234.249 661.239 229.477C664.678 223.066 667.078 215.486 671.98 210.034C672.152 209.966 672.322 209.897 672.494 209.831C676.777 208.207 685.411 208.135 687.748 203.944C687.748 198.585 683.414 191.132 681.547 186.005C682.831 183.139 684.827 179.88 683.673 176.682C681.483 170.616 657.377 160.082 650.864 157.044C652.036 160.655 653.305 164.182 654.929 167.619C660.587 170.905 667.928 172.893 669.706 180.017C670.56 183.437 671.683 191.383 669.71 194.44C669.044 195.473 668.569 195.579 667.479 196.025C665.849 195.963 664.874 195.678 663.789 194.377C658.361 187.869 662.423 182.137 651.025 180.53C644.975 179.677 639.151 179.709 633.851 176.199C633.387 170.364 634.094 163.509 632.386 157.919C630.373 151.328 612.889 142.654 610.421 131.341C610.125 129.984 610.393 128.763 611.378 127.76C612.942 126.166 616.132 126.525 618.107 126.8C624.924 127.75 639.971 138.288 645.492 134.321C646.2 132.654 646.129 131.35 645.448 129.661C644.587 127.523 642.785 126.546 640.704 125.787C636.286 124.178 631.439 124.114 626.994 122.675C621.948 121.042 617.184 117.994 612.206 116.046C606.386 113.769 600.224 112.376 594.447 109.988C589.91 108.112 586.675 103.215 582.254 101.792C579.642 100.951 576.842 101.833 574.49 103.014C572.655 103.936 570.868 104.987 569.082 106.001C556.204 99.3855 543.614 91.6579 529.6 87.6495C519.235 84.6851 508.091 83.8396 497.382 83.0719C458.555 80.2886 416.21 81.8561 378.925 93.8386C372.199 96.0003 365.608 98.5805 359.022 101.132C349.679 104.752 334.831 108.843 330.02 118.665C328.06 122.667 327.108 130.677 328.478 135.034C328.841 136.188 329.339 136.741 330.436 137.269C337.049 140.457 361.51 134.168 364.827 141.489C365.633 143.268 364.839 145.377 364.033 147.005C361.825 151.467 358.613 156.511 353.603 157.943C349.785 159.034 345.403 158.8 341.46 159.349C329.447 161.022 319.51 168.318 313.39 178.639C311.566 181.714 310.212 184.954 309.002 188.31ZM462.42 352.352C447.956 373.656 431.111 393.613 417.56 415.502L417.675 494.009Q440.662 492.106 463.622 489.89C479.894 488.531 496.166 487.055 512.453 485.899C512.245 463.457 512.866 439.821 511.806 417.58C501.011 402.296 489.579 387.499 478.306 372.568C473.378 366.042 468.646 357.596 462.42 352.352ZM451.593 336.46C441.477 349.324 432.038 363.345 422.758 376.85C417.262 383.269 408.301 395.368 404.499 402.566C404.28 405.23 404.083 407.995 405.502 410.404C405.344 411.324 405.054 412.07 404.688 412.927C408.439 409.561 411.748 404.025 414.621 399.858C428.414 381.716 445.833 361.999 457.227 342.641C455.432 340.504 453.503 338.493 451.593 336.46ZM211.315 199.836C201.995 207.203 185.204 228.724 183.839 240.875C183.713 241.994 183.88 242.788 184.224 243.846C184.991 244.709 185.369 245.06 186.492 245.366C192.311 238.928 213.909 209.436 213.765 201.904C213.75 201.071 213.559 200.907 213.168 200.217C212.554 200.07 211.946 199.883 211.315 199.836Z"/>
	<path fill="#D98E0B" transform="scale(1.01355 1.01355)" d="M530.704 336.691C534.982 338.623 537.37 339.85 540.03 343.874C537.398 343.968 534.225 342.829 532.321 340.989C530.914 339.628 530.782 338.529 530.704 336.691Z"/>
	<path fill="#FEFEFE" transform="scale(1.01355 1.01355)" d="M508.696 298.675Q515.7 301.503 522.76 304.187C523.282 315.135 523.101 326.143 522.988 337.101Q515.852 333.819 508.556 330.91L508.696 298.675Z"/>
	<path fill="#FEFEFE" transform="scale(1.01355 1.01355)" d="M451.593 336.46C453.503 338.493 455.432 340.504 457.227 342.641C445.833 361.999 428.414 381.716 414.621 399.858C411.748 404.025 408.439 409.561 404.688 412.927C405.054 412.07 405.344 411.324 405.502 410.404C404.083 407.995 404.28 405.23 404.499 402.566C408.301 395.368 417.262 383.269 422.758 376.85C432.038 363.345 441.477 349.324 451.593 336.46ZM422.758 376.85C417.262 383.269 408.301 395.368 404.499 402.566C404.28 405.23 404.083 407.995 405.502 410.404C405.344 411.324 405.054 412.07 404.688 412.927C408.439 409.561 411.748 404.025 414.621 399.858C414.921 395.941 427.182 380.46 429.622 374.846C428.62 375.95 427.722 377.077 426.397 377.805L426.153 376.9C428.016 374.942 428.815 372.388 429.816 369.919C427.333 371.68 425.309 375.871 422.758 376.85Z"/>
	<defs>
		<linearGradient id="gradient_0" gradientUnits="userSpaceOnUse" x1="414.5304" y1="389.36322" x2="420.67462" y2="390.68076">
			<stop offset="0" stop-color="white" stop-opacity="0.76862746"/>
			<stop offset="1" stop-color="white" stop-opacity="0.87450981"/>
		</linearGradient>
	</defs>
	<path fill="url(#gradient_0)" transform="scale(1.01355 1.01355)" d="M422.758 376.85C425.309 375.871 427.333 371.68 429.816 369.919C428.815 372.388 428.016 374.942 426.153 376.9L426.397 377.805C427.722 377.077 428.62 375.95 429.622 374.846C427.182 380.46 414.921 395.941 414.621 399.858C411.748 404.025 408.439 409.561 404.688 412.927C405.054 412.07 405.344 411.324 405.502 410.404C404.083 407.995 404.28 405.23 404.499 402.566C408.301 395.368 417.262 383.269 422.758 376.85Z"/>
	<path fill="#FEFEFE" transform="scale(1.01355 1.01355)" d="M543.219 432.494C556.002 432.564 568.829 432.441 581.605 432.851L581.519 485.243L573.859 485.561C563.92 483.508 553.346 483.788 543.222 483.546C543.041 466.536 543.214 449.506 543.219 432.494Z"/>
	<path fill="#FEFEFE" transform="scale(1.01355 1.01355)" d="M462.35 325.361C471.585 326.429 545.465 357.869 552.114 363.501C559.029 369.36 564.049 378.013 569.738 385.044Q584.388 402.954 599.579 420.409C580.037 420.874 560.204 420.841 540.671 420.109C514.557 388.521 488.935 356.558 462.35 325.361Z"/>
	<path fill="#7E0E0E" transform="scale(1.01355 1.01355)" d="M466.522 404.526L486.522 404.504C486.661 410.751 486.677 416.952 486.465 423.197Q476.525 423.159 466.585 423.285L466.522 404.526Z"/>
	<path fill="#7E0E0E" transform="scale(1.01355 1.01355)" d="M438.865 404.609L459.458 404.63L459.43 423.419C452.581 423.334 445.722 423.411 438.872 423.409Q438.814 414.009 438.865 404.609Z"/>
	<path fill="#7E0E0E" transform="scale(1.01355 1.01355)" d="M466.538 431.826Q476.563 431.716 486.586 431.951L486.55 451.866Q476.571 451.726 466.593 451.886L466.538 431.826Z"/>
	<path fill="#7E0E0E" transform="scale(1.01355 1.01355)" d="M438.948 431.674L459.323 431.708C459.494 438.403 459.331 445.129 459.13 451.822L438.857 451.894Q438.838 441.784 438.948 431.674Z"/>
	<path fill="#D98E0B" transform="scale(1.01355 1.01355)" d="M581.519 485.243C586.036 485.049 590.3 484.879 594.768 485.761C597.226 487.53 600.544 490.547 601.14 493.666C601.398 495.011 601.048 496.306 600.265 497.414C595.202 504.583 571.165 506.943 562.367 508.061C553.998 509.124 545.52 509.81 537.099 510.324C518.841 511.437 418.392 515.087 409.311 525.377C408.835 525.916 408.557 526.567 408.684 527.277C409.262 530.489 413.998 533.293 416.649 534.86C429.106 542.22 444.085 546.177 457.729 550.949C495.866 564.289 562.934 586.555 574.68 630.237C576.938 638.635 576.849 646.541 574.893 654.981Q533.803 654.143 492.706 654.605C480.705 654.784 468.764 655.521 456.744 655.546Q426.65 656.504 396.577 657.986C386.647 658.753 353.91 661.649 345.795 660.097C349.478 657.941 361.959 654.745 366.797 653.029C383.61 647.069 400.819 639.972 416.008 630.526C424.16 625.457 434.705 618.013 436.785 607.966C441.164 586.815 404.548 570.216 389.353 562.817L369.54 553.039C362.414 549.609 350.93 545.435 346.563 538.634C345.501 536.98 345.023 535.114 345.556 533.184C346.858 528.467 352.943 525.554 357.146 523.902C382.067 514.103 421.18 511.093 448.244 508.037L530.259 498.883C539.992 497.848 567.949 496.401 575.16 491.929C576.244 491.257 576.42 490.696 576.666 489.506C576.175 487.816 575.035 486.801 573.859 485.561L581.519 485.243Z"/>
	<path fill="#7E0E0E" transform="scale(1.01355 1.01355)" d="M396.577 657.986C404.407 653.345 413.824 650.476 422.191 646.834C436.459 640.623 458.246 630.109 463.976 614.566C478.523 575.113 368.476 547.852 364.037 534.024C363.637 532.779 364.155 531.812 364.925 530.866C369.935 524.715 387.471 522.168 394.878 521.044C393.746 522.797 392.151 524.697 391.574 526.699C390.525 530.333 393.57 533.286 396.126 535.382C402.598 540.692 410.982 544.471 418.366 548.369C441.248 560.449 479.197 577.591 492.344 600.495C496.063 606.974 497.55 614.222 495.396 621.523C490.274 638.881 471.318 647.513 456.744 655.546Q426.65 656.504 396.577 657.986Z"/>
	<path fill="#7E0E0E" transform="scale(1.01355 1.01355)" d="M376.22 113.593C377.473 113.501 379.014 113.523 380.236 113.846C381.562 114.196 382.022 114.727 382.689 115.858C382.624 116.503 382.643 116.676 382.385 117.34C381.391 119.903 377.921 120.802 375.624 121.479C374.434 121.561 373.108 121.622 371.928 121.398C370.55 121.137 370.059 120.663 369.26 119.573C369.278 118.982 369.247 118.838 369.447 118.213C370.308 115.528 373.874 114.467 376.22 113.593Z"/>
	<path fill="#D98E0B" transform="scale(1.01355 1.01355)" d="M489.448 295.986C489.59 298.616 490.288 302.52 488.915 304.853C488.221 304.997 487.535 305.166 486.829 305.238C473.172 304.084 459.608 304.485 445.96 303.747C460.442 301.397 475.354 300.229 489.448 295.986Z"/>
	<path fill="#7E0E0E" transform="scale(1.01355 1.01355)" d="M608.446 208.988C612.256 208.959 616.739 208.596 620.115 210.684C621.171 211.337 621.963 212.353 622.063 213.623C622.278 216.326 620.046 219.126 618.345 221C616.229 222.219 613.053 223.532 610.564 222.914C609.226 222.582 608.408 221.755 607.762 220.582C605.888 217.186 607.528 212.431 608.446 208.988Z"/>
	<path fill="#7E0E0E" transform="scale(1.01355 1.01355)" d="M428.677 89.1997L437.653 89.0136C435.202 93.1261 432.789 97.9121 429.345 101.262C426.384 104.143 422.105 105.577 418.705 107.901C415.845 109.854 413.401 112.684 411.004 115.179C409.927 115.96 408.91 116.782 407.545 116.964Q407.068 117.024 406.588 116.997Q406.108 116.971 405.64 116.858Q405.173 116.746 404.733 116.551Q404.294 116.356 403.896 116.086L403.691 114.967C405.871 110.256 411.631 108.748 414.58 104.794C417.246 101.22 416.514 95.7737 419.222 92.2036C421.375 89.3663 425.454 89.5073 428.677 89.1997Z"/>
	<path fill="#7E0E0E" transform="scale(1.01355 1.01355)" d="M359.858 108.875C361.198 109.221 362.716 109.52 363.639 110.651C364.374 111.552 364.522 112.695 364.416 113.813C363.966 118.561 358.935 124.492 355.258 127.328C351.601 130.149 349.032 130.802 344.5 130.257C343.226 129.671 341.752 128.905 340.671 128.014C339.715 127.226 339.121 126.112 339.172 124.851C339.34 120.638 349.069 114.137 352.583 112.394C354.999 111.195 357.191 110.993 359.43 109.226C359.575 109.112 359.715 108.992 359.858 108.875Z"/>
	<path fill="#7E0E0E" transform="scale(1.01355 1.01355)" d="M264.519 358.58C267.782 358.293 270.978 358.15 273.95 359.743C276.435 361.075 278.052 363.24 278.765 365.953C280.4 372.179 277.637 379.084 274.442 384.369C274.123 384.689 273.576 385.272 273.198 385.491C272.288 386.018 271.315 386.014 270.418 385.476C266.832 383.326 264.624 374.846 263.745 370.93C262.773 366.599 261.995 362.507 264.519 358.58Z"/>
	<path fill="#7E0E0E" transform="scale(1.01355 1.01355)" d="M320.816 428.724C325.296 428.564 329.82 428.007 333.56 431.047C335.016 432.23 336.175 434.006 336.314 435.911C336.454 437.832 335.603 439.748 334.329 441.156C330.996 444.839 326.517 444.753 321.945 445.118L317.089 445.533C316.696 445.283 316.3 445.037 315.922 444.766C313.251 442.849 309.076 439.522 308.852 435.971C308.762 434.529 309.096 433.323 310.059 432.239C312.684 429.285 317.15 429.054 320.816 428.724Z"/>
	<path fill="#7E0E0E" transform="scale(1.01355 1.01355)" d="M547.519 150.454C555.014 151.5 562.54 152.333 569.975 153.763C570.734 156.367 571.355 159.021 572.026 161.649L561.722 167.396C558.939 168.926 556.176 170.266 553.244 171.486C549.426 166.445 546.048 161.294 541.894 156.492C543.695 154.386 545.554 152.408 547.519 150.454Z"/>
	<path fill="#7E0E0E" transform="scale(1.01355 1.01355)" d="M263.058 399.151C263.63 399.135 264.18 399.13 264.751 399.168C272.337 399.674 279.429 403.714 284.367 409.412C287.325 412.825 291.14 418.656 290.409 423.317C290.194 424.684 289.698 425.144 288.653 425.961C286.984 426.263 285.859 425.437 284.447 424.674C279.864 421.25 274.907 416.255 269.583 414.144C266.47 412.91 262.916 412.41 259.676 411.529C257.18 410.851 255.238 409.941 253.954 407.615C253.97 406.59 253.87 406.201 254.364 405.26C255.987 402.172 259.882 400.167 263.058 399.151Z"/>
	<path fill="#7E0E0E" transform="scale(1.01355 1.01355)" d="M613.574 187.694C616.976 187.391 620.325 187.455 623.736 187.534C626.051 191.921 627.52 197.577 630.715 201.393C636.966 208.86 647.712 209.882 652.238 220.629C652.92 222.248 653.111 223.704 652.347 225.349C651.17 227.887 647.94 228.951 645.524 229.789C642.874 230.197 639.885 230.878 637.225 230.343C635.644 230.025 634.346 229.29 633.471 227.894C631.684 225.044 633.099 219.782 633.651 216.639C631.335 213.278 628.656 210.323 625.663 207.555C621.129 203.361 610.924 196.868 608.607 191.399C608.203 190.445 608.401 190.451 608.714 189.546C610.219 188.38 611.745 188.114 613.574 187.694Z"/>
	<path fill="#7E0E0E" transform="scale(1.01355 1.01355)" d="M385.576 121.126C395.864 120.624 407.333 121.805 415.389 128.844C416.443 131.937 417.12 135.112 418.249 138.2C421.663 140.92 430.37 144.641 432.352 147.197C431.866 152.094 423.563 150.705 420.833 153.587C417.401 157.209 420.28 164.075 416.697 167.049C412.161 170.814 395.763 167.944 389.92 167.048C388.765 166.083 387.965 165.022 387.678 163.518C386.242 155.993 397.909 148.962 401.682 143.323C403.135 141.151 404.043 138.87 403.415 136.248C403.089 134.885 402.24 133.746 400.985 133.086C399.195 132.144 396.96 132.127 395.005 132.403C383.795 133.984 383.191 146.028 375.867 147.261C374.583 147.477 373.784 147.365 372.733 146.582C371.714 145.823 371.247 144.57 371.122 143.366C372.137 139.485 375.335 136.578 377.978 133.712C378.156 130.658 377.739 125.977 379.774 123.525C381.234 121.764 383.458 121.48 385.576 121.126Z"/>
	<path fill="#D98E0B" transform="scale(1.01355 1.01355)" d="M524.515 271.337C528.13 261.783 531.318 252.025 534.411 242.289C536.699 235.089 538.705 227.645 541.921 220.789C539.635 238.395 537.206 256.81 533.171 274.087L540.293 279.3C555.861 268.117 571.471 256.68 587.719 246.508C574.192 260.264 559.286 272.523 545.67 286.164L549.278 292.774C565.944 292.415 582.915 293.09 599.545 294.311C583.086 297.207 565.704 299.07 549.037 300.264C547.737 303.601 546.366 306.757 544.643 309.899C552.15 313.379 558.959 320.503 565.183 325.927C573.93 333.55 582.579 341.387 591.769 348.479C584.588 345.503 577.835 340.276 571.371 335.958C560.819 328.91 550.332 321.674 539.316 315.364C536.549 320.656 533.709 325.803 530.647 330.93C529.724 321.595 530.434 312.366 530.5 303.014L534.723 300.551C525.358 297.011 515.84 293.83 506.382 290.549C500.938 292.544 495.333 294.78 489.582 295.656L489.227 295.247C488.432 294.314 487.749 293.692 487.677 292.406C488.738 290.501 494.36 289.604 493.662 287.761C491.986 283.341 458.651 262.033 452.919 258.259C469.194 263.648 484.063 273.193 499.792 279.935C502.612 277.719 505.401 275.432 508.383 273.438C505.269 266.584 502.762 259.376 500.042 252.355C496.055 242.065 491.947 231.859 488.232 221.462C498.827 236.25 507.385 255.761 517.468 271.572L524.515 271.337Z"/>
	<path fill="#7E0E0E" transform="scale(1.01355 1.01355)" d="M487.611 91.6459C488.702 91.6944 489.931 91.701 490.947 92.1379C493.173 93.0943 493.776 95.7675 494.505 97.8497C503.541 104.571 513.565 109.07 521.916 116.868C519.563 118.888 514.773 122.146 513.919 125.093C512.736 129.177 526.919 129.185 529.75 134.396C530.687 136.121 530.545 138.236 529.798 140.011C527.56 145.329 518.882 143 514.463 144.834C510.521 146.47 510.783 151.161 509.258 154.49C507.42 158.499 504.122 159.198 500.413 160.776C492.909 163.968 498.056 172.459 495.566 178.169C494.171 181.366 490.795 182.592 487.79 183.8C486.346 183.802 484.861 183.746 483.479 183.297C474.492 180.373 466.326 169.982 462.414 161.761C458.032 152.551 459.553 151.064 462.532 141.932C463.115 140.147 463.289 138.123 462.246 136.455C460.828 134.187 457.426 133.472 455.035 132.661C455.866 130.678 456.791 128.653 457.385 126.586C461.479 112.346 445.939 117.984 442.942 111.386C442.257 109.878 442.367 107.971 442.868 106.426C445.218 99.1822 458.107 96.7298 464.318 93.3957L465.138 92.9508C473.305 93.2206 479.481 93.3872 487.611 91.6459Z"/>
</svg>
